<?xml version="1.0" standalone="no"?>
<!DOCTYPE svg PUBLIC "-//W3C//DTD SVG 20010904//EN"
 "http://www.w3.org/TR/2001/REC-SVG-20010904/DTD/svg10.dtd">
<svg version="1.0" xmlns="http://www.w3.org/2000/svg"
 width="736.000000pt" height="414.000000pt" viewBox="0 0 736.000000 414.000000"
 preserveAspectRatio="xMidYMid meet">

<g transform="translate(0.000000,414.000000) scale(0.100000,-0.100000)"
fill="#000000" stroke="none">
<path d="M0 2071 l0 -2068 3680 -2 3680 -1 0 396 c0 381 -1 397 -20 421 -25
32 -25 43 0 43 17 0 20 7 20 50 0 30 -7 61 -16 75 -15 23 -15 25 0 31 22 8 20
34 -1 34 -17 1 -17 1 0 14 15 12 17 32 16 185 -1 94 -5 171 -9 171 -4 0 -15
-9 -26 -21 -10 -11 -27 -25 -38 -31 -17 -9 -18 -7 -13 12 10 40 -8 60 -48 53
-33 -5 -51 10 -22 20 6 2 9 8 5 12 -4 4 -14 2 -23 -5 -8 -7 -15 -9 -15 -4 0 4
-11 -3 -24 -15 -21 -19 -23 -27 -15 -54 14 -50 12 -59 -12 -52 -16 5 -19 4
-14 -5 5 -9 4 -11 -4 -6 -9 6 -9 13 3 31 11 17 12 25 3 34 -8 8 -7 11 3 11 11
0 11 3 2 12 -10 10 -15 10 -21 -1 -5 -7 -35 -16 -67 -20 -55 -6 -62 -5 -96 22
-21 16 -41 26 -45 24 -5 -3 -19 0 -32 7 l-23 13 32 7 c27 5 37 1 58 -19 18
-18 31 -23 46 -19 28 9 29 10 22 30 -5 12 -14 15 -40 10 -33 -6 -33 -6 -40 40
-3 26 -6 83 -6 127 0 80 0 80 38 114 35 33 35 34 4 13 -18 -12 -56 -24 -86
-27 -50 -5 -53 -4 -59 18 -11 38 -10 39 51 40 31 1 71 5 87 9 l30 7 -25 10
c-27 11 -60 6 -60 -9 0 -6 -7 -5 -15 2 -13 11 -12 14 9 26 14 7 33 14 43 17
14 4 13 5 -5 6 -22 1 -22 2 9 36 39 43 84 58 144 50 50 -8 55 -14 24 -34 -18
-10 -23 -10 -30 0 -6 10 -13 10 -34 1 -15 -7 -31 -9 -37 -6 -6 4 -8 2 -4 -4 3
-6 1 -14 -5 -18 -8 -4 -7 -9 2 -15 21 -13 29 -11 29 8 0 13 3 14 12 5 9 -9 9
-21 -1 -51 -18 -60 1 -119 60 -186 35 -40 50 -45 42 -14 -5 17 -2 20 18 17 14
-2 33 6 48 20 14 12 31 20 38 17 8 -2 12 -1 9 4 -3 5 1 14 9 21 9 7 15 29 15
55 0 49 -26 81 -59 70 -16 -5 -21 -2 -21 10 0 17 -11 17 -52 0 -14 -6 -18 -2
-18 17 0 35 33 61 93 73 57 12 74 31 26 33 -35 1 -40 3 -43 27 -5 31 -95 31
-153 1 -53 -28 -141 -47 -129 -28 4 6 25 17 47 23 47 15 69 36 49 49 -8 5 -20
1 -32 -10 -26 -24 -69 -35 -78 -20 -5 8 -9 7 -13 -4 -3 -8 -15 -20 -26 -26
-20 -10 -21 -8 -20 39 1 43 5 50 25 55 18 5 24 13 24 35 0 16 8 35 17 42 15
12 16 12 10 -5 -10 -26 14 -59 56 -79 34 -16 49 -17 133 -2 31 5 44 3 57 -9 8
-9 23 -13 31 -10 9 3 27 -1 39 -9 14 -9 35 -13 52 -9 23 4 27 2 22 -11 -5 -12
1 -19 19 -23 34 -9 35 -5 19 41 -8 22 -14 48 -15 59 0 16 -5 18 -37 13 -20 -4
-40 -13 -45 -20 -10 -18 -61 -10 -54 8 3 8 -2 16 -10 19 -26 10 -36 7 -30 -9
7 -19 -8 -19 -31 -1 -79 65 -80 66 -75 91 4 24 32 37 32 15 0 -5 7 -10 16 -10
8 0 13 4 10 9 -3 5 1 11 9 15 22 8 18 31 -7 44 -20 9 -16 11 27 10 28 0 42 -2
33 -5 -20 -5 -24 -19 -7 -25 6 -2 13 -21 15 -43 3 -22 8 -51 11 -65 6 -25 6
-25 13 5 15 60 11 133 -8 151 -9 10 -18 21 -18 26 -1 4 -2 10 -3 13 0 3 -17
-2 -37 -10 -20 -8 -49 -15 -65 -15 -34 0 -38 -17 -6 -29 17 -7 9 -10 -40 -16
-34 -4 -66 -4 -71 -1 -5 3 -15 26 -22 51 -7 25 -17 48 -21 51 -20 12 -7 24 26
24 34 0 34 0 30 -40 -2 -22 -6 -44 -10 -50 -16 -26 10 -26 55 0 26 16 69 32
94 35 41 6 46 10 46 32 0 21 -3 23 -14 14 -11 -9 -17 -8 -28 7 -7 11 -22 22
-33 25 -18 4 -18 5 3 6 12 0 22 6 22 11 0 6 -26 10 -59 10 -33 0 -62 4 -65 9
-9 15 18 19 62 11 23 -4 42 -3 42 1 0 5 -7 9 -16 9 -8 0 -13 4 -10 9 6 10 -21
35 -48 45 -26 9 -15 16 28 18 20 1 39 5 41 8 8 13 80 9 121 -5 23 -8 31 -14
19 -15 -11 0 -35 -9 -54 -21 l-34 -21 24 -23 c24 -24 24 -24 72 -7 45 16 59
34 37 47 -6 3 -10 15 -10 26 0 14 7 19 28 19 15 0 34 5 42 10 11 7 -4 10 -50
11 l-65 1 38 11 c22 7 35 15 31 20 -4 4 -1 7 7 7 8 1 -3 10 -23 21 -21 11 -38
25 -39 32 -2 19 -21 -55 -21 -80 0 -13 -5 -23 -10 -23 -6 0 -8 11 -6 25 6 31
-12 33 -37 5 -10 -11 -25 -20 -33 -20 -13 0 -13 3 1 18 10 10 17 21 17 23 0 3
-21 5 -47 5 -27 1 -42 -1 -35 -3 14 -5 6 -23 -10 -23 -6 0 -8 10 -4 25 5 20 2
26 -19 31 -14 3 -25 10 -25 15 0 14 52 10 80 -6 14 -8 36 -14 50 -14 23 0 23
1 5 9 -18 8 -18 9 5 10 l25 0 -25 21 c-20 16 -36 19 -85 16 l-60 -4 39 18 39
17 -33 7 c-26 6 -36 3 -54 -15 -17 -18 -18 -23 -7 -28 10 -3 5 -13 -20 -33
-26 -22 -31 -31 -21 -37 11 -8 11 -10 -1 -15 -9 -3 -17 2 -20 13 -3 11 -1 20
3 22 5 2 10 10 12 18 2 11 -5 14 -32 11 -37 -3 -63 -18 -55 -31 3 -4 -7 -7
-20 -7 -22 0 -24 2 -13 15 8 9 8 13 2 9 -7 -4 -17 0 -23 7 -11 13 -17 12 -48
0 -19 -8 -40 -13 -46 -11 -7 2 5 11 26 20 20 9 37 20 37 25 0 15 -42 22 -57
10 -9 -7 -13 -7 -13 0 0 42 128 72 149 35 8 -14 9 -13 8 8 -2 20 -6 25 -22 22
-16 -4 -17 -3 -5 6 13 9 13 14 -3 40 -15 25 -17 57 -17 237 0 177 3 213 17
245 10 21 26 40 35 42 10 3 17 2 16 -2 -1 -3 2 -13 5 -21 3 -8 8 -26 11 -40 3
-14 3 38 0 115 l-4 140 47 25 c26 14 78 42 116 64 l69 39 28 -22 c16 -11 49
-26 73 -33 37 -9 51 -9 86 5 23 9 50 17 61 17 19 0 20 8 20 255 l0 255 -3680
0 -3680 0 0 -2069z m5420 1698 c0 -33 -4 -48 -11 -44 -8 6 -8 50 0 93 1 1 3 2
6 2 3 0 5 -23 5 -51z m-646 -1 c3 -13 2 -24 -3 -26 -5 -2 -7 -12 -4 -23 3 -10
0 -25 -6 -33 -9 -11 -9 -19 0 -34 13 -21 6 -52 -11 -52 -6 0 -10 36 -10 95 0
74 3 95 14 95 7 0 16 -10 20 -22z m116 -17 c0 -22 -4 -43 -10 -46 -6 -4 -10
12 -10 39 0 25 5 46 10 46 6 0 10 -18 10 -39z m1300 9 c0 -16 6 -33 14 -37 22
-12 77 -418 60 -445 -6 -9 -10 -6 -15 12 l-7 25 -1 -27 c-1 -16 -5 -28 -10
-28 -10 0 -23 147 -16 186 4 16 -4 76 -16 134 -27 129 -35 210 -20 210 6 0 11
-13 11 -30z m-5912 -83 c2 22 22 43 22 23 0 -6 5 -8 10 -5 6 3 10 -3 10 -15 0
-12 4 -19 8 -16 5 3 14 -52 21 -122 6 -70 13 -145 15 -167 3 -22 3 16 1 85 -2
87 0 110 5 75 5 -27 9 -205 9 -394 1 -332 -2 -368 -30 -436 -5 -11 -7 -58 -4
-105 5 -116 6 -118 15 -90 5 16 8 -14 9 -83 1 -61 -3 -106 -8 -103 -5 3 -11
-1 -14 -8 -4 -10 -15 -13 -31 -10 -24 4 -26 1 -28 -33 0 -21 -2 -42 -3 -48 -2
-5 -3 -26 -4 -46 -1 -28 -6 -38 -28 -48 -46 -21 -47 -11 -41 329 1 85 3 198 3
250 2 172 35 954 42 1010 l7 55 7 -60 c3 -33 6 -50 7 -38z m7070 76 c-4 -22
-22 -20 -26 1 -2 10 3 16 13 16 10 0 15 -7 13 -17z m-5070 -50 c1 -32 9 -123
18 -203 10 -95 12 -154 6 -170 -8 -22 -10 -18 -16 30 -23 197 -32 400 -18 400
4 0 9 -26 10 -57z m143 -426 c-14 -14 -23 193 -15 345 l8 143 8 -240 c5 -135
4 -243 -1 -248z m96 136 c-1 -65 -3 -12 -3 117 0 129 2 182 3 118 2 -65 2
-171 0 -235z m1292 120 c-1 -154 -4 -215 -10 -188 -8 40 -11 394 -2 408 2 4 6
7 9 7 2 0 3 -102 3 -227z m1698 205 c-3 -8 -6 -5 -6 6 -1 11 2 17 5 13 3 -3 4
-12 1 -19z m43 -5 c0 -29 -2 -29 -19 5 -10 18 -9 22 4 22 10 0 15 -9 15 -27z
m-3390 -218 c0 -196 -2 -235 -14 -235 -8 0 -17 -6 -20 -12 -3 -7 -5 91 -3 217
2 188 5 234 17 247 8 10 16 17 18 18 1 0 2 -106 2 -235z m337 78 c-2 -32 -3
-8 -3 52 0 61 1 87 3 58 2 -29 2 -78 0 -110z m62 -75 c-1 -128 -5 -242 -9
-253 -10 -24 -13 370 -4 439 4 25 8 46 10 46 2 0 3 -105 3 -232z m2931 222 c0
-5 -7 -7 -15 -4 -8 4 -15 8 -15 10 0 2 7 4 15 4 8 0 15 -4 15 -10z m98 -26 c0
-19 -3 -33 -6 -29 -9 9 -11 65 -2 65 4 0 8 -16 8 -36z m-5392 -201 c-3 -126
-11 -433 -16 -683 -9 -417 -16 -568 -26 -579 -2 -2 -4 180 -4 405 0 296 6 495
20 719 11 171 20 322 20 338 0 15 3 27 6 27 4 0 4 -102 0 -227z m4752 182 c-2
-26 -7 -44 -13 -42 -14 5 -19 47 -6 47 6 0 11 9 11 20 0 11 2 20 5 20 2 0 4
-20 3 -45z m-4824 -1610 c3 -126 9 -293 12 -370 4 -117 3 -137 -8 -120 -9 14
-13 65 -13 178 0 103 -4 160 -11 165 -6 4 -14 21 -19 37 -4 17 -7 336 -6 710
2 574 6 780 22 1020 1 17 6 -289 9 -680 4 -390 10 -813 14 -940z m2333 1523
c-2 -24 -4 -5 -4 42 0 47 2 66 4 43 2 -24 2 -62 0 -85z m3407 90 c13 -90 26
-359 18 -374 -7 -13 -11 -3 -16 37 -9 78 -26 288 -26 332 0 46 17 49 24 5z
m-3627 -25 c-3 -10 -5 -2 -5 17 0 19 2 27 5 18 2 -10 2 -26 0 -35z m-827 -5
c-1 -7 -7 -38 -15 -68 -10 -41 -13 -48 -14 -25 -1 45 10 105 20 105 5 0 9 -6
9 -12z m33 -8 c-3 -12 -8 -19 -11 -16 -5 6 5 36 12 36 2 0 2 -9 -1 -20z m462
10 c3 -5 -1 -10 -9 -10 -9 0 -16 5 -16 10 0 6 4 10 9 10 6 0 13 -4 16 -10z
m1442 -12 c-3 -8 -6 -5 -6 6 -1 11 2 17 5 13 3 -3 4 -12 1 -19z m1373 -9 c0
-16 -4 -28 -9 -25 -8 5 -3 56 5 56 2 0 4 -14 4 -31z m151 4 c-8 -15 -10 -15
-11 -2 0 17 10 32 18 25 2 -3 -1 -13 -7 -23z m1158 -165 l0 -193 -19 55 c-10
30 -19 47 -19 38 -1 -10 -5 -18 -11 -18 -6 0 -10 25 -9 58 0 40 3 51 9 37 13
-33 19 -8 24 103 2 34 6 65 9 69 4 3 7 15 7 25 0 10 2 18 5 18 3 0 5 -87 4
-192z m-3652 115 c-2 -16 -4 -5 -4 22 0 28 2 40 4 28 2 -13 2 -35 0 -50z
m3313 42 c0 -28 -17 -34 -27 -9 -3 9 0 20 8 25 19 12 19 12 19 -16z m670 -20
c4 -5 13 -55 20 -111 17 -136 1 -284 -24 -218 -3 9 -8 98 -11 198 -2 99 -2
172 1 161 4 -11 9 -24 14 -30z m-2443 -207 c-1 -46 -3 -9 -3 82 0 91 2 128 3
83 2 -46 2 -120 0 -165z m-580 200 c-3 -8 -6 -5 -6 6 -1 11 2 17 5 13 3 -3 4
-12 1 -19z m1966 -178 c1 -85 0 -144 -4 -130 -4 14 -7 44 -8 68 -1 23 -5 42
-11 42 -5 0 -7 -7 -4 -15 4 -8 2 -15 -3 -15 -12 0 -15 108 -3 115 5 3 13 34
17 68 9 77 11 61 16 -133z m-3054 -35 c0 -118 -1 -119 -15 -75 -9 29 -14 89
-13 170 0 124 0 125 14 75 9 -30 14 -98 14 -170z m2634 195 c-5 -19 -23 -29
-23 -12 0 7 20 32 26 32 1 0 0 -9 -3 -20z m770 -3 c3 -8 -1 -14 -8 -14 -7 0
-11 6 -8 14 3 7 6 13 8 13 2 0 5 -6 8 -13z m805 -187 c0 -72 -3 -106 -8 -90
-4 14 -8 86 -8 160 0 99 3 123 9 90 4 -25 7 -97 7 -160z m-3131 168 c-3 -8 -6
-5 -6 6 -1 11 2 17 5 13 3 -3 4 -12 1 -19z m1142 -21 c14 -26 11 -61 -7 -94
-7 -12 -12 -32 -12 -45 0 -13 -7 -33 -15 -44 -20 -27 -19 -34 9 -34 14 0 28
-5 31 -10 4 -7 -3 -8 -21 -4 -16 4 -35 7 -42 7 -8 0 -10 6 -6 16 11 28 15 201
4 201 -24 0 -7 25 19 27 20 1 32 -4 40 -20z m251 -17 c0 -29 -4 -40 -15 -40
-12 0 -15 10 -13 40 1 25 7 40 15 40 9 0 13 -14 13 -40z m27 18 c-3 -8 -6 -5
-6 6 -1 11 2 17 5 13 3 -3 4 -12 1 -19z m23 -12 c-5 -13 -7 -26 -4 -29 3 -2
-1 -7 -9 -10 -15 -6 -16 15 -3 46 12 26 27 20 16 -7z m-1453 -8 c-3 -8 -6 -5
-6 6 -1 11 2 17 5 13 3 -3 4 -12 1 -19z m1233 -8 c8 -5 3 -7 -13 -7 -15 1 -27
3 -27 4 0 1 3 9 6 18 5 12 9 13 14 5 4 -7 13 -16 20 -20z m88 -40 c-1 -35 -8
-62 -15 -64 -8 -3 -11 5 -10 24 1 17 5 30 10 30 4 0 5 11 1 24 -5 23 1 46 12
46 3 0 4 -27 2 -60z m1117 20 c-2 -4 -18 -5 -35 -2 l-32 5 16 -31 c9 -17 16
-42 16 -57 0 -14 4 -25 9 -25 12 0 22 -27 27 -77 5 -40 -6 -57 -21 -33 -10 15
-23 12 -28 -7 -3 -11 -5 -7 -6 10 0 15 0 29 2 30 1 2 -4 11 -12 20 -10 13 -10
17 -1 17 13 0 10 69 -6 133 -5 20 -3 27 9 27 8 0 20 7 28 16 12 14 14 14 26
-2 7 -9 10 -20 8 -24z m-910 20 c-3 -5 -1 -19 5 -30 6 -11 9 -20 6 -20 -2 0
-11 -3 -20 -6 -12 -5 -16 0 -16 18 0 13 5 29 12 36 15 15 21 16 13 2z m-3486
-152 c-12 -62 -25 -117 -28 -121 -12 -12 8 127 31 228 23 93 20 10 -3 -107z
m1925 31 c-14 -57 -31 -108 -36 -114 -6 -6 -8 -1 -4 15 2 14 7 45 11 68 3 24
14 61 25 83 22 43 25 53 10 44 -6 -3 -7 1 -4 10 4 10 10 13 16 7 5 -5 -2 -51
-18 -113z m2356 111 c0 -5 -4 -10 -10 -10 -5 0 -10 5 -10 10 0 6 5 10 10 10 6
0 10 -4 10 -10z m-3011 -217 c1 -29 -3 -53 -9 -53 -5 0 -10 10 -10 23 0 16 -3
18 -9 9 -12 -20 -21 9 -21 68 0 34 4 50 15 54 12 4 15 19 14 53 -1 27 0 53 1
58 4 13 18 -144 19 -212z m1951 207 c0 -5 -5 -10 -11 -10 -5 0 -7 5 -4 10 3 6
8 10 11 10 2 0 4 -4 4 -10z m1827 -107 c-2 -21 -4 -6 -4 32 0 39 2 55 4 38 2
-18 2 -50 0 -70z m-1687 72 c11 -14 14 -13 24 1 7 9 21 14 32 11 17 -4 17 -5
-2 -6 -12 0 -24 -8 -28 -16 -5 -14 4 -19 29 -16 6 0 12 -9 12 -21 2 -18 0 -20
-7 -8 -6 9 -10 10 -10 3 0 -6 4 -15 10 -18 6 -4 4 -15 -6 -30 -8 -13 -11 -26
-6 -29 10 -6 3 -66 -8 -66 -14 0 -22 77 -10 96 18 30 -3 73 -40 80 -16 4 -30
13 -30 20 0 19 24 18 40 -1z m166 -14 c-12 -19 -24 -12 -19 10 4 13 9 17 15
11 6 -6 7 -15 4 -21z m734 8 c0 -13 -37 -11 -46 3 -4 6 -3 8 4 4 6 -3 13 -2
17 4 7 12 25 4 25 -11z m-2460 2 c0 -5 -7 -14 -15 -21 -13 -10 -15 -9 -15 9 0
12 6 21 15 21 8 0 15 -4 15 -9z m1347 -68 c-2 -16 -4 -3 -4 27 0 30 2 43 4 28
2 -16 2 -40 0 -55z m733 21 c0 -34 -4 -53 -10 -49 -18 11 -12 105 7 105 2 0 3
-25 3 -56z m-635 36 c3 -5 2 -10 -4 -10 -5 0 -13 5 -16 10 -3 6 -2 10 4 10 5
0 13 -4 16 -10z m1714 -82 c-1 -65 -4 -84 -9 -63 -12 45 -12 155 0 155 6 0 10
-37 9 -92z m208 30 c-2 -13 -4 -3 -4 22 0 25 2 35 4 23 2 -13 2 -33 0 -45z
m-4700 20 c-3 -7 -5 -2 -5 12 0 14 2 19 5 13 2 -7 2 -19 0 -25z m3008 -3 c-1
-14 2 -25 7 -25 5 0 6 -5 3 -11 -4 -5 6 -22 22 -36 21 -20 23 -25 8 -19 -35
13 -38 12 -42 -24 -8 -63 -13 -45 -13 48 0 51 4 92 9 92 5 0 8 -11 6 -25z
m-725 -10 c0 -8 4 -15 9 -15 5 0 8 -14 7 -32 -1 -24 -7 -32 -24 -35 -22 -3
-23 0 -21 47 2 34 7 50 16 50 7 0 13 -7 13 -15z m-1373 -67 c-3 -7 -5 -2 -5
12 0 14 2 19 5 13 2 -7 2 -19 0 -25z m2832 2 c9 -28 9 -29 -9 -20 -22 12 -22
12 -14 34 8 22 10 20 23 -14z m608 -2 c-3 -7 -5 -2 -5 12 0 14 2 19 5 13 2 -7
2 -19 0 -25z m-637 -19 c14 -33 22 -36 44 -13 15 14 20 11 17 -8 0 -5 4 -8 9
-8 6 0 8 11 4 27 -7 27 -7 27 10 10 10 -10 15 -24 12 -34 -14 -35 22 -48 148
-51 125 -2 129 -3 157 -57 8 -15 5 -14 -11 4 -22 26 -31 28 -175 31 -49 2 -92
6 -95 11 -4 5 -21 12 -40 15 l-33 7 7 -39 c4 -21 9 -71 13 -111 3 -40 9 -70
13 -68 8 5 20 -43 20 -79 0 -11 6 -33 14 -48 19 -35 26 -106 12 -111 -8 -3 -7
-11 1 -28 7 -13 14 -58 16 -100 2 -42 7 -81 11 -87 4 -7 2 -12 -3 -12 -12 0
-14 11 -13 48 1 12 -3 20 -8 17 -4 -3 -13 28 -19 67 -7 40 -16 81 -21 91 -7
11 -7 17 0 17 5 0 10 17 9 38 0 20 -3 31 -6 25 -2 -7 -8 -13 -13 -13 -9 0 -16
28 -24 100 -6 45 -5 44 14 -15 l20 -60 -5 60 c-3 33 -10 62 -15 63 -6 2 -10
12 -10 23 0 12 -5 16 -15 13 -10 -4 -15 0 -15 14 0 11 -2 35 -5 53 -4 25 -3
29 3 14 l9 -20 6 20 c4 11 3 43 -1 70 -7 45 -10 50 -32 48 -14 -1 -19 0 -12 3
23 11 12 24 -20 25 -27 0 -29 2 -13 8 11 5 26 6 33 3 10 -3 10 1 1 21 -7 15
-16 24 -20 21 -5 -3 -9 -3 -9 0 0 2 -3 12 -6 20 -12 30 24 6 36 -25z m-2833
-21 c-3 -7 -5 -2 -5 12 0 14 2 19 5 13 2 -7 2 -19 0 -25z m2408 23 c-3 -6 4
-26 15 -46 20 -36 25 -84 11 -120 -8 -19 -8 -19 -21 4 -6 13 -10 39 -7 57 4
22 1 37 -9 45 -16 13 -19 33 -4 24 7 -4 9 2 4 19 -4 17 -2 26 6 26 6 0 9 -4 5
-9z m876 -32 c-6 -16 -10 -18 -10 -7 -1 22 12 55 16 42 2 -6 -1 -22 -6 -35z
m-1513 -13 l-2 -24 -198 -1 -198 -2 0 26 0 25 200 0 200 0 -2 -24z m250 7 c-3
-15 -18 -19 -97 -23 -51 -3 -98 -2 -104 2 -6 4 -15 2 -19 -5 -5 -7 -8 -1 -8
16 l0 27 116 0 c105 0 115 -2 112 -17z m619 -35 c-3 -8 -6 -5 -6 6 -1 11 2 17
5 13 3 -3 4 -12 1 -19z m1410 -160 c-2 -35 -3 -9 -3 57 0 66 1 94 3 63 2 -32
2 -86 0 -120z m-1847 115 c-19 -39 -54 -72 -92 -86 -10 -4 -18 -2 -18 3 0 6 8
10 18 10 26 1 58 30 82 78 12 24 23 42 26 40 2 -3 -5 -23 -16 -45z m-391 -18
c0 -5 -4 -2 -10 9 -9 15 -13 16 -21 5 -8 -11 -8 -10 -4 4 3 10 6 24 6 30 1 14
29 -33 29 -48z m1624 48 c-7 -2 -21 -2 -30 0 -10 3 -4 5 12 5 17 0 24 -2 18
-5z m44 1 c-3 -3 -12 -4 -19 -1 -8 3 -5 6 6 6 11 1 17 -2 13 -5z m258 -4 c-3
-5 1 -10 9 -10 9 0 16 5 16 10 0 6 48 10 125 10 104 0 125 -2 125 -15 0 -13
-33 -15 -242 -13 -134 1 -203 4 -153 5 49 2 94 8 99 13 13 13 29 13 21 0z
m-1131 -53 c8 -6 8 -10 -1 -14 -7 -2 -13 -9 -13 -14 0 -6 4 -8 9 -5 10 7 18
-47 26 -179 3 -49 11 -112 16 -138 6 -26 9 -58 7 -72 -4 -21 -3 -22 14 -12 16
10 19 20 14 55 -4 27 -2 41 4 37 6 -3 10 -24 10 -46 0 -21 3 -39 8 -39 4 0 7
55 7 122 l0 123 28 13 c16 8 27 21 27 33 0 27 -19 24 -46 -8 l-24 -28 0 50 c0
28 -3 60 -6 73 -5 18 -2 22 16 22 19 0 22 -4 17 -27 -5 -28 0 -53 12 -53 3 0
5 20 3 45 -5 55 11 59 25 8 9 -34 11 -35 12 -10 1 20 6 27 20 27 30 0 37 -21
13 -41 -12 -9 -22 -21 -22 -25 0 -4 8 1 19 10 17 15 19 15 25 1 3 -9 6 -34 6
-55 0 -23 5 -40 14 -43 10 -4 14 -23 15 -62 0 -32 6 -63 12 -71 7 -8 9 -17 5
-21 -3 -3 -6 -1 -6 5 0 7 -4 12 -9 12 -17 0 1 -41 30 -70 51 -50 29 -130 -26
-94 -19 12 -21 11 -21 -6 0 -11 4 -20 9 -20 4 0 5 -5 1 -12 -4 -6 13 -29 41
-55 40 -36 55 -43 89 -43 23 0 36 4 29 8 -8 5 -3 11 13 19 14 7 24 7 24 1 0
-6 48 -8 125 -5 68 2 126 2 129 0 14 -15 -10 -33 -43 -32 -29 0 -32 2 -16 9
13 6 -14 8 -75 8 l-95 -2 70 -6 c58 -5 43 -7 -88 -10 -112 -4 -157 -2 -157 6
0 6 -8 18 -17 25 -16 13 -17 12 -5 -3 16 -20 7 -40 -16 -36 -14 3 -17 -8 -20
-69 -2 -46 1 -73 8 -73 5 0 10 -6 10 -14 0 -7 11 -51 24 -97 17 -57 21 -87 14
-94 -6 -7 -9 -4 -6 9 1 10 -3 21 -11 24 -8 3 -11 0 -7 -7 4 -6 1 -11 -6 -11
-10 0 -10 -2 0 -9 8 -4 14 -12 13 -17 -1 -19 12 -54 19 -54 15 0 22 -41 10
-55 -6 -8 -8 -19 -4 -26 5 -9 -1 -10 -22 -6 -16 3 -23 4 -16 1 28 -12 10 -20
-23 -10 -21 7 -33 16 -30 23 2 7 0 13 -4 13 -5 0 -11 -20 -12 -44 -2 -24 -2
-43 1 -41 3 2 11 -4 19 -12 12 -13 11 -14 -8 -8 -15 5 -21 2 -21 -9 0 -9 -4
-16 -10 -16 -5 0 -10 15 -10 33 -1 17 -12 64 -26 102 l-24 70 4 -90 c3 -55 2
-80 -4 -65 -4 14 -8 39 -9 56 -1 23 -7 33 -22 37 -16 4 -19 2 -14 -11 13 -31
10 -46 -8 -50 -16 -3 -18 2 -16 38 2 28 -1 44 -11 50 -8 6 -10 10 -5 11 6 0 1
4 -10 9 -17 7 -17 9 -2 9 9 1 17 3 17 5 0 2 3 11 6 20 5 12 -1 16 -24 16 -17
0 -33 -4 -36 -8 -3 -5 -25 -9 -48 -9 l-43 -1 2 76 1 76 39 13 c21 7 46 17 56
23 10 6 21 9 25 6 5 -3 14 -1 22 4 9 5 19 5 26 -1 18 -15 27 7 14 32 -9 15 -9
24 -1 32 6 6 11 19 11 29 0 13 -8 18 -30 18 -16 0 -30 5 -30 10 0 6 10 10 22
10 20 0 21 1 3 20 -14 15 -15 20 -4 20 8 0 25 3 38 7 21 5 22 3 16 -17 -6 -19
-4 -21 13 -16 15 5 21 1 25 -16 4 -13 6 -23 5 -23 -1 0 7 -10 17 -22 11 -13
25 -23 32 -23 7 0 12 -5 10 -11 -1 -6 5 -14 13 -16 12 -4 12 -3 1 5 -9 7 -10
12 -2 16 6 4 11 34 11 67 0 51 -3 59 -19 59 -13 0 -18 7 -18 25 0 20 5 25 24
25 13 0 22 4 18 10 -3 5 -6 25 -7 44 -1 25 -5 33 -12 27 -13 -11 -49 12 -38
24 4 4 -2 3 -14 -3 -15 -8 -24 -8 -34 1 -10 10 -12 8 -7 -5 4 -10 2 -18 -3
-18 -6 0 -10 5 -10 10 0 6 -5 10 -11 10 -5 0 -7 -5 -4 -10 3 -6 -4 -14 -17
-19 -15 -5 -24 -18 -25 -32 -1 -13 -9 -29 -17 -35 -9 -6 -12 -14 -8 -19 4 -4
-3 -4 -15 -1 -18 6 -23 3 -23 -9 0 -15 6 -16 38 -10 20 4 45 8 55 7 24 -1 21
7 -5 19 -19 8 -17 9 14 5 35 -4 43 2 52 46 2 13 16 21 16 9 0 -7 5 -9 11 -5 9
5 10 -1 5 -22 -4 -16 -13 -32 -19 -36 -8 -5 -5 -8 8 -9 l20 0 -20 -9 c-11 -5
-42 -9 -70 -9 -63 -1 -95 -10 -95 -25 0 -7 -13 -25 -30 -41 -16 -16 -30 -34
-30 -42 0 -13 -39 -39 -41 -26 0 4 0 32 1 62 2 61 21 98 56 107 43 11 75 92
47 120 -9 8 -13 25 -10 39 5 27 -4 31 -33 15 -13 -7 -23 -30 -31 -70 -7 -36
-16 -59 -23 -57 -10 4 -11 17 -2 80 2 15 0 30 -5 33 -20 12 -6 33 36 53 46 22
80 19 71 -6 -3 -8 -1 -11 4 -8 6 3 10 25 10 48 0 30 -3 38 -10 27 -5 -8 -11
-12 -13 -10 -3 3 -7 91 -10 195 -3 105 -3 181 0 170 3 -11 10 -24 17 -28z
m913 37 c-3 -3 -12 -4 -19 -1 -8 3 -5 6 6 6 11 1 17 -2 13 -5z m-4130 -71 c-3
-10 -5 -4 -5 12 0 17 2 24 5 18 2 -7 2 -21 0 -30z m2810 -25 c-3 -7 -5 -2 -5
12 0 14 2 19 5 13 2 -7 2 -19 0 -25z m-954 -25 c-16 -6 -17 -110 -2 -150 6
-16 10 -91 9 -178 -1 -82 -1 -158 -1 -167 0 -20 -12 -24 -64 -23 l-40 0 -3
263 -2 262 57 -1 c32 0 52 -3 46 -6z m1814 -174 c3 -191 5 -207 24 -220 11 -8
10 -9 -6 -7 -17 3 -20 -4 -23 -44 -5 -70 -17 -58 -16 15 1 35 -4 66 -10 70 -8
6 -7 10 2 14 17 7 15 23 -3 23 -10 0 -15 10 -16 28 0 15 -3 21 -6 15 -8 -20
-23 -15 -23 7 0 11 7 20 15 20 12 0 15 20 15 118 0 65 3 122 7 126 4 4 14 5
23 4 13 -3 15 -28 17 -169z m-3670 104 c-3 -10 -5 -2 -5 17 0 19 2 27 5 18 2
-10 2 -26 0 -35z m2823 27 c0 -5 -5 -10 -11 -10 -5 0 -7 5 -4 10 3 6 8 10 11
10 2 0 4 -4 4 -10z m986 -40 c16 -4 21 -13 20 -39 0 -19 5 -36 12 -39 7 -2 9
6 6 22 -2 15 0 26 6 26 7 0 10 -43 9 -130 -1 -71 -6 -130 -11 -130 -5 0 -9 35
-8 78 2 115 1 119 -17 127 -15 5 -16 4 -5 -6 7 -8 12 -38 11 -73 0 -59 -1 -60
-12 -29 -18 47 -27 51 -28 10 -1 -20 -3 -41 -4 -47 -1 -5 -3 -45 -4 -87 -1
-86 -9 -95 -12 -15 -3 54 -7 60 -27 40 -9 -9 -11 -6 -7 10 2 12 -1 22 -7 22
-6 0 -8 9 -5 20 6 25 -8 26 -22 3 -6 -10 -11 -13 -11 -7 0 6 11 23 26 39 14
15 22 30 18 34 -4 3 -9 0 -11 -6 -5 -15 -33 -17 -33 -3 0 6 6 10 13 10 8 0 7
4 -3 10 -11 7 -6 9 18 7 29 -2 33 -5 29 -24 -3 -15 1 -23 9 -23 9 0 13 13 12
38 -2 93 4 215 11 192 4 -13 16 -27 27 -30z m-57 -19 c0 -33 2 -65 3 -72 2 -7
-10 -16 -27 -20 -16 -4 -24 -7 -17 -8 17 -2 15 -21 -3 -21 -12 0 -15 15 -15
78 0 76 1 78 28 89 15 6 28 11 28 12 1 1 2 -26 3 -58z m-3609 -123 c0 -94 -3
-169 -6 -166 -3 3 -5 24 -6 47 0 23 -3 43 -7 46 -4 2 -7 51 -6 109 0 59 -3
106 -7 106 -4 0 -8 5 -8 11 0 5 4 8 9 4 5 -3 12 -1 16 5 3 5 8 10 11 10 2 0 4
-77 4 -172z m237 45 c-4 -65 -6 -128 -7 -140 0 -13 -5 -23 -10 -23 -10 0 -5
202 6 258 11 55 16 13 11 -95z m43 107 c0 -5 -5 -10 -11 -10 -5 0 -7 5 -4 10
3 6 8 10 11 10 2 0 4 -4 4 -10z m2391 -79 c-14 -44 -78 -121 -99 -121 -7 0 6
16 27 36 38 33 75 105 71 135 -4 29 2 43 9 19 4 -14 0 -44 -8 -69z m1349 79
c0 -5 -2 -10 -4 -10 -3 0 -8 5 -11 10 -3 6 -1 10 4 10 6 0 11 -4 11 -10z m225
0 c4 -6 -5 -10 -19 -10 -14 0 -26 5 -26 10 0 6 9 10 19 10 11 0 23 -4 26 -10z
m-1954 -27 c13 -16 12 -17 -3 -5 -11 9 -18 10 -23 2 -3 -5 -1 -10 6 -10 7 0 9
-3 6 -7 -4 -3 3 -17 15 -30 14 -15 17 -22 7 -18 -19 7 -48 56 -42 73 6 17 18
15 34 -5z m-1406 -3 c3 -5 1 -10 -4 -10 -6 0 -11 5 -11 10 0 6 2 10 4 10 3 0
8 -4 11 -10z m-535 -69 c0 -54 -3 -70 -16 -75 -12 -4 -15 -2 -10 9 3 8 2 15
-3 15 -4 0 -8 6 -8 14 0 8 6 12 14 9 7 -3 13 0 13 6 0 6 -10 12 -22 12 -17 1
-19 2 -5 6 9 2 17 13 17 24 0 11 -7 19 -17 20 -17 1 -17 2 0 6 9 2 17 9 17 14
0 5 5 9 10 9 6 0 10 -30 10 -69z m2580 28 c0 -12 -38 12 -45 28 -3 9 4 8 20
-3 14 -9 25 -20 25 -25z m957 34 c-14 -4 -18 -12 -15 -33 2 -16 1 -27 -4 -24
-4 3 -8 18 -8 35 0 24 4 29 23 28 18 -1 19 -2 4 -6z m58 -3 c3 -5 1 -10 -4
-10 -6 0 -11 5 -11 10 0 6 2 10 4 10 3 0 8 -4 11 -10z m255 -7 c2 -2 -51 -3
-118 -2 -67 0 -122 5 -122 10 0 8 230 1 240 -8z m-1062 -18 c-3 -3 -9 2 -12
12 -6 14 -5 15 5 6 7 -7 10 -15 7 -18z m-2253 6 c3 -5 1 -12 -5 -16 -5 -3 -10
1 -10 9 0 18 6 21 15 7z m-2266 -17 c2 -2 -17 -4 -43 -4 -30 0 -45 4 -41 10 6
9 72 4 84 -6z m1266 -164 c14 0 25 -4 25 -9 0 -5 14 -14 30 -21 17 -7 30 -16
30 -21 0 -12 -17 -11 -25 1 -3 6 -13 10 -21 10 -9 0 -22 7 -30 15 -34 34 -36
18 -33 -234 3 -188 7 -247 16 -240 14 12 27 -6 19 -27 -3 -9 -1 -12 4 -9 6 3
10 1 10 -4 0 -6 -5 -11 -11 -11 -7 0 -9 -10 -5 -25 4 -17 2 -25 -6 -25 -10 0
-12 -36 -10 -162 1 -111 -1 -158 -8 -148 -8 13 -10 13 -10 -2 0 -10 6 -18 13
-18 7 -1 5 -6 -5 -14 -10 -7 -18 -19 -18 -27 0 -27 21 -89 28 -85 5 3 7 -104
7 -237 -1 -133 0 -167 2 -74 4 189 -7 169 93 171 l45 1 -3 -162 c-2 -98 1
-170 7 -181 8 -13 10 -8 11 25 0 32 5 46 22 57 12 9 26 16 30 16 5 0 9 -28 10
-62 l1 -63 8 70 c17 141 20 278 7 287 -8 5 -1 8 20 8 17 0 35 1 38 3 4 1 6
-47 5 -106 -2 -75 1 -107 8 -102 7 4 11 47 11 108 l0 102 30 0 30 0 1 -130 c1
-102 3 -119 9 -80 5 28 9 85 9 128 1 42 4 77 9 77 4 0 17 3 30 6 l22 6 0 -221
0 -221 38 1 c27 2 30 3 11 6 l-26 4 5 137 c4 123 7 139 26 155 l21 19 5 -164
5 -163 5 171 c4 151 7 175 24 193 17 19 15 26 -6 22 -5 0 -8 5 -8 13 0 8 -2
20 -5 28 -4 10 12 13 73 13 68 0 78 -2 75 -16 -3 -9 0 -20 6 -23 7 -4 11 1 11
12 0 25 59 37 67 15 3 -8 4 -96 1 -196 -3 -100 -1 -193 3 -207 4 -14 7 -18 8
-10 3 43 23 91 36 86 8 -3 19 3 24 12 8 14 11 10 11 -18 l1 -35 16 30 17 30 7
-35 c3 -19 10 -43 13 -52 6 -13 1 -17 -26 -20 -18 -2 106 -9 276 -15 170 -7
313 -10 317 -7 5 3 9 87 9 188 0 183 0 183 24 194 17 7 27 7 35 -1 8 -8 11 -7
11 4 0 10 3 10 8 2 4 -6 20 -13 36 -15 l29 -3 -2 -177 -2 -176 70 -4 71 -3 0
61 c0 92 9 124 33 124 11 0 17 3 14 7 -4 3 1 11 10 18 22 16 8 35 -27 35 -15
0 -35 3 -44 6 -23 9 -20 26 4 19 15 -5 18 -3 14 9 -5 12 -2 15 10 10 12 -5 16
0 16 20 0 21 -5 26 -24 26 -14 0 -28 5 -31 11 -4 6 -14 8 -22 5 -8 -3 -11 -1
-8 4 3 5 -8 18 -24 28 -17 10 -28 22 -23 27 4 4 -1 5 -10 2 -19 -7 -25 7 -8
18 15 9 85 -13 112 -35 l23 -19 -40 14 c-61 21 -77 17 -20 -5 66 -26 88 -26
80 0 -3 11 -4 20 -1 20 3 0 10 -18 16 -40 8 -31 16 -40 33 -41 12 0 16 -3 10
-6 -15 -6 -17 -33 -3 -33 6 0 10 3 10 8 0 4 3 17 6 29 5 18 3 21 -16 16 -20
-5 -21 -4 -12 14 6 10 28 28 49 39 21 10 40 21 43 24 25 27 68 50 94 50 l31 0
-25 -23 c-14 -13 -34 -27 -45 -31 -18 -8 -16 -10 14 -18 26 -7 31 -12 20 -19
-8 -5 -18 -9 -24 -9 -5 0 -3 5 5 10 12 8 10 10 -10 10 -14 0 -38 -9 -54 -19
l-30 -20 27 -6 c15 -4 41 -2 58 4 42 14 49 14 49 -4 0 -8 -5 -15 -11 -15 -6 0
-8 -9 -4 -20 7 -22 2 -23 -57 -14 -21 4 -35 10 -33 14 3 4 -4 10 -15 13 -11 3
-22 1 -25 -3 -3 -5 3 -11 12 -13 14 -4 13 -5 -4 -6 -35 -2 -38 -21 -4 -21 33
0 44 -26 16 -36 -22 -9 1 -34 30 -34 12 0 29 -8 38 -18 16 -18 16 -19 -5 -18
-18 1 -24 -5 -26 -26 -3 -24 1 -28 32 -33 19 -4 57 -5 85 -4 48 4 49 3 59 -28
7 -24 7 -30 -3 -27 -7 3 -15 -1 -18 -9 -8 -21 33 -27 197 -27 95 0 136 -3 126
-10 -17 -11 140 -14 202 -4 33 6 36 9 27 25 -5 11 -6 19 -1 19 4 0 9 27 10 60
2 36 -2 60 -8 60 -15 0 -12 62 4 83 14 18 82 25 71 7 -3 -6 -8 -47 -9 -93 -4
-101 -7 -116 -32 -134 -29 -21 -2 -33 80 -33 l69 0 -26 -20 c-19 -15 -40 -20
-89 -19 -40 0 -56 3 -44 8 18 7 18 8 -5 14 -39 11 -66 8 -79 -8 -7 -8 -25 -15
-40 -15 -15 0 -33 7 -40 15 -16 19 -30 19 -30 0 0 -13 -31 -15 -217 -16 -120
-1 -231 0 -247 1 -23 1 -28 -2 -23 -14 8 -21 -40 -66 -70 -66 -29 0 -31 35 -3
50 11 6 20 14 20 18 0 4 -91 6 -202 4 -175 -3 -207 -6 -235 -22 -32 -19 -32
-18 -35 3 l-3 22 -645 0 c-355 -1 -697 -4 -761 -9 l-116 -8 24 -106 c13 -59
23 -122 23 -139 l-1 -33 73 0 c122 -1 298 -10 388 -20 112 -13 131 -13 128 3
-5 21 -22 27 -88 27 -36 0 -109 3 -162 7 -93 6 -98 7 -98 28 0 18 7 24 38 30
51 9 145 6 156 -5 6 -6 15 -5 23 1 9 8 30 8 73 1 33 -6 66 -9 73 -7 27 8 198
14 193 7 -3 -5 9 -6 26 -4 29 4 31 3 26 -22 -4 -19 -1 -26 10 -26 24 0 4 -14
-26 -18 -27 -3 -50 -18 -41 -26 2 -3 53 -8 112 -13 l107 -9 0 42 c0 34 4 43
25 52 14 7 43 12 65 12 21 0 42 4 45 10 4 6 12 6 23 -1 25 -15 106 2 110 23 2
13 -3 14 -35 8 -21 -4 -47 -11 -58 -15 -15 -6 -17 -5 -10 3 13 14 155 42 155
30 0 -4 -6 -8 -14 -8 -8 0 -16 -7 -20 -15 -4 -12 4 -15 37 -16 23 -1 48 -1 55
0 6 1 20 -3 30 -9 13 -9 1 -10 -50 -5 -86 7 -99 -10 -14 -20 54 -5 65 -10 70
-28 8 -31 7 -49 -2 -43 -5 3 -9 -1 -9 -9 0 -10 11 -15 33 -15 l32 0 1 143 c2
134 3 143 24 159 12 10 25 18 30 18 4 0 7 -38 7 -85 l0 -86 55 5 c65 5 61 13
70 -137 6 -95 6 -97 -17 -106 -23 -10 -23 -10 3 -10 25 -1 27 -5 31 -46 2 -25
0 -45 -4 -45 -5 0 -8 7 -8 15 0 9 -9 15 -24 15 -18 0 -27 -8 -35 -30 -9 -27
-8 -30 11 -30 15 0 19 5 15 20 -3 13 0 20 10 20 9 0 13 -6 9 -15 -3 -9 0 -15
9 -15 9 0 15 -20 20 -67 4 -38 9 -76 11 -85 3 -10 1 -18 -5 -18 -6 0 -13 11
-17 25 -5 19 -13 25 -35 25 -22 0 -27 -4 -22 -16 5 -13 7 -13 14 -2 11 17 11
10 0 -30 -9 -29 -7 -32 11 -32 17 0 20 5 16 30 l-4 29 22 -24 c18 -19 24 -41
29 -110 6 -69 10 -85 24 -85 20 0 180 -18 228 -26 24 -4 33 -2 28 5 -3 6 -21
11 -40 11 -64 0 -104 61 -105 157 0 31 2 32 30 27 32 -7 31 -9 35 61 1 11 5
21 11 22 5 1 8 -5 6 -13 -2 -8 1 -14 6 -14 13 0 24 29 16 43 -5 8 -2 7 7 0 20
-19 31 -16 20 6 -6 10 -7 21 -4 25 3 3 -3 6 -15 6 -12 0 -22 -4 -22 -10 0 -5
-4 -10 -10 -10 -5 0 -7 7 -4 15 6 13 -6 20 -28 16 -5 0 -8 4 -8 11 0 7 -5 6
-12 -4 -16 -19 -48 -31 -48 -17 0 5 8 12 18 16 9 3 27 18 39 32 12 14 22 20
23 14 0 -7 -5 -13 -11 -13 -5 0 -7 -5 -4 -10 4 -6 10 -8 15 -5 4 3 10 -2 13
-9 8 -20 48 -14 78 10 32 25 34 46 6 63 -21 13 -21 13 -6 -5 14 -18 13 -21 -9
-44 -14 -14 -22 -20 -19 -15 3 6 2 17 -2 24 -7 10 -13 10 -30 2 -17 -9 -20 -9
-15 2 5 15 -21 31 -36 22 -10 -6 -8 15 4 33 7 11 4 12 -13 3 -18 -10 -21 -9
-21 6 0 14 -2 15 -9 4 -5 -8 -16 -11 -25 -8 -11 5 -16 1 -16 -13 0 -25 -16
-26 -24 -3 -5 11 -1 22 9 29 18 13 9 23 -18 19 -9 -2 -15 1 -11 6 8 13 38 11
52 -3 9 -9 12 -8 12 8 0 11 -5 25 -12 32 -9 9 -9 12 0 12 7 0 12 9 12 20 0 22
-19 27 -37 9 -8 -8 -16 -4 -28 15 -21 32 -18 37 29 39 28 2 35 5 30 17 -4 8
-8 76 -9 150 l-3 135 9 -105 c5 -58 9 -120 9 -138 0 -29 3 -33 22 -31 13 2 34
-3 47 -10 22 -12 26 -11 43 10 19 24 19 24 3 -10 -14 -28 -14 -33 -3 -28 23 8
78 -23 84 -49 8 -31 -2 -57 -18 -48 -8 5 -8 1 1 -10 12 -14 12 -19 2 -25 -10
-6 -9 -10 4 -15 9 -3 24 -1 33 5 16 10 15 10 0 5 -10 -3 -18 -1 -18 4 0 6 10
11 23 11 18 1 16 3 -8 9 l-30 7 32 8 c18 4 30 11 27 16 -3 5 -11 6 -17 3 -8
-4 -7 -2 1 7 19 20 34 -7 28 -48 -3 -18 0 -36 6 -39 8 -5 9 -1 4 11 -6 16 -4
16 11 4 15 -12 16 -12 10 5 -5 13 -3 17 7 13 14 -6 15 -1 7 57 0 4 -8 5 -17 2
-14 -5 -15 -4 -5 8 8 10 9 16 1 21 -20 12 -10 26 11 15 25 -14 65 -22 55 -12
-4 4 -21 12 -37 17 -16 6 -28 15 -26 20 1 6 5 9 9 8 4 -2 5 4 2 12 -5 11 -2
13 11 9 14 -6 16 -4 7 12 -5 11 -6 28 -1 39 8 20 14 7 10 -22 -1 -7 3 -13 10
-13 6 0 8 -7 5 -16 -3 -8 -2 -12 4 -9 6 3 10 -3 10 -14 0 -12 5 -21 10 -21 6
0 10 -9 10 -19 0 -11 11 -28 26 -38 l25 -19 -25 -24 c-20 -18 -26 -20 -26 -8
0 18 -18 28 -37 20 -19 -6 -16 -42 3 -42 8 0 13 -4 10 -8 -3 -5 4 -19 15 -30
20 -22 18 -26 -13 -23 -10 1 -18 -4 -18 -12 0 -27 31 -102 45 -110 24 -13 17
-28 -10 -21 -20 5 -24 3 -19 -10 8 -20 -9 -21 -26 -1 -16 19 -34 19 -26 0 3
-8 1 -27 -4 -41 -9 -23 -8 -25 10 -19 19 6 20 2 20 -58 0 -49 -5 -70 -20 -90
-11 -14 -20 -27 -20 -30 0 -2 27 -10 60 -18 64 -14 74 -23 38 -33 -42 -11 -90
-7 -82 7 6 10 4 10 -7 0 -16 -15 -33 -17 -24 -3 4 6 -7 10 -25 10 -18 0 -29
-4 -25 -10 4 -6 -369 -10 -1088 -10 l-1095 0 -6 33 c-7 40 -1 259 10 337 7 51
6 54 -9 41 -10 -7 -17 -21 -17 -30 0 -14 -2 -14 -10 -1 -7 11 -8 5 -3 -19 3
-20 2 -32 -3 -29 -10 7 -10 -86 1 -119 4 -13 5 -23 2 -23 -2 0 -19 37 -37 83
-18 45 -48 112 -67 150 -18 37 -30 67 -25 67 4 0 13 -14 19 -31 l12 -31 38 28
c59 43 61 47 15 29 -24 -10 -45 -16 -47 -13 -10 10 -8 75 4 96 11 21 10 22
-34 22 -33 0 -45 4 -45 15 0 8 -4 15 -10 15 -15 0 -12 -11 10 -48 24 -38 24
-42 7 -42 -7 0 -24 18 -37 40 -14 22 -28 40 -32 40 -5 0 -8 5 -8 12 0 6 -10
23 -22 37 -13 14 -15 19 -5 12 9 -8 20 -11 24 -8 7 8 33 -11 33 -25 0 -5 -6
-6 -12 -2 -7 4 -10 4 -6 -1 8 -9 138 -14 138 -5 -1 3 -11 17 -23 32 -19 22
-32 27 -87 31 -106 7 -111 10 -124 73 -7 33 3 43 52 49 21 3 23 0 21 -28 -3
-50 0 -64 16 -71 11 -4 14 1 11 16 -1 12 -8 24 -14 26 -8 2 -8 9 0 25 25 50
28 58 28 90 0 18 -5 38 -12 45 -16 16 4 16 21 0 11 -11 13 -10 8 4 -5 15 -3
16 36 2 l42 -14 -25 21 -25 22 35 -8 c19 -4 46 -14 58 -22 13 -8 26 -12 29
-10 2 3 -28 24 -69 46 -47 26 -65 41 -51 41 12 0 59 -25 104 -55 45 -30 83
-55 84 -55 1 0 3 30 4 67 1 45 7 73 18 85 8 9 18 16 22 15 3 0 16 4 29 11 l22
13 0 496 c0 448 -2 498 -17 515 -9 10 -11 18 -6 18 19 0 22 40 25 265 1 121 5
276 8 345 l5 125 3 -92 c3 -91 3 -93 27 -93z m4119 165 c-7 -18 0 -19 26 -5
12 7 27 7 45 0 20 -8 27 -7 31 5 4 10 20 15 48 15 40 0 41 -1 42 -36 1 -33 -1
-35 -22 -31 -19 3 -24 0 -24 -17 -1 -31 -25 -57 -75 -81 -44 -22 -65 -18 -65
10 0 19 -38 48 -51 39 -7 -4 -10 -3 -5 4 3 5 0 13 -6 16 -7 3 -4 4 8 1 20 -5
21 -2 16 45 -4 46 -3 50 16 50 15 0 20 -5 16 -15z m-165 -19 c10 -12 8 -13 -8
-9 -12 3 -21 9 -21 14 0 14 16 11 29 -5z m416 4 c3 -5 1 -10 -4 -10 -6 0 -11
5 -11 10 0 6 2 10 4 10 3 0 8 -4 11 -10z m-1465 -4 c0 -3 -4 -8 -10 -11 -5 -3
-10 -1 -10 4 0 6 5 11 10 11 6 0 10 -2 10 -4z m358 -61 c-2 -9 -8 -12 -17 -6
-11 7 -11 13 0 32 11 20 14 21 17 7 2 -10 2 -25 0 -33z m729 8 c-3 -10 -5 -4
-5 12 0 17 2 24 5 18 2 -7 2 -21 0 -30z m-1072 -3 c9 -16 11 -30 6 -30 -5 0
-14 14 -20 30 -5 17 -8 30 -6 30 3 0 11 -13 20 -30z m1457 1 c2 -17 1 -28 -3
-26 -10 7 -18 55 -9 55 4 0 10 -13 12 -29z m-652 9 c0 -5 -4 -10 -10 -10 -5 0
-10 5 -10 10 0 6 5 10 10 10 6 0 10 -4 10 -10z m-2375 -30 c-3 -5 -12 -10 -18
-10 -7 0 -6 4 3 10 19 12 23 12 15 0z m1635 -10 c6 -11 8 -20 6 -20 -3 0 -10
9 -16 20 -6 11 -8 20 -6 20 3 0 10 -9 16 -20z m1065 2 c-3 -3 -11 0 -18 7 -9
10 -8 11 6 5 10 -3 15 -9 12 -12z m-1206 -23 c11 -19 11 -21 -4 -15 -9 3 -19
6 -21 6 -2 0 -4 7 -4 15 0 21 13 19 29 -6z m351 1 c0 -5 -2 -10 -4 -10 -3 0
-8 5 -11 10 -3 6 -1 10 4 10 6 0 11 -4 11 -10z m-2489 -11 c103 -2 133 -9 109
-24 -6 -4 -4 -15 6 -31 23 -34 12 -39 -38 -19 -28 11 -68 17 -113 17 -108 -1
-125 4 -125 39 0 26 3 29 25 25 14 -3 75 -6 136 -7z m2170 -33 c8 5 13 -16 10
-43 -1 -6 8 -19 21 -27 17 -12 24 -13 30 -3 4 6 3 16 -2 21 -6 6 -10 17 -10
25 0 8 3 11 7 8 3 -4 14 0 24 9 16 14 18 14 28 -5 15 -27 14 -41 -2 -41 -8 0
-19 -12 -25 -26 -7 -14 -15 -23 -20 -21 -4 3 -8 -13 -9 -36 -3 -46 -12 -60
-31 -48 -11 7 -27 72 -35 146 -1 11 -8 24 -16 29 -11 7 -11 10 0 17 8 5 15 4
17 -1 2 -6 8 -8 13 -4z m1214 -4 c-3 -3 -11 0 -18 7 -9 10 -8 11 6 5 10 -3 15
-9 12 -12z m232 -3 c-9 -5 -21 -8 -26 -4 -5 3 -12 -3 -14 -12 -4 -14 -5 -13
-6 5 -1 19 4 22 32 22 27 -1 29 -2 14 -11z m-1635 -24 c3 -14 1 -25 -3 -25 -5
0 -9 11 -9 25 0 14 2 25 4 25 2 0 6 -11 8 -25z m-4219 0 c-3 -9 -8 -14 -10
-11 -3 3 -2 9 2 15 9 16 15 13 8 -4z m4352 -13 c-6 -7 -45 9 -45 18 0 4 11 3
24 -3 14 -7 23 -13 21 -15z m978 8 c-3 -12 -8 -19 -11 -16 -5 6 5 36 12 36 2
0 2 -9 -1 -20z m-2245 -685 c213 0 468 -5 479 -10 14 -5 14 -7 -3 -20 -18 -13
-18 -14 6 -8 21 5 23 3 13 -8 -22 -23 -14 -29 37 -29 46 0 50 2 50 24 0 13 13
93 30 178 16 84 30 154 30 156 0 8 38 0 48 -10 9 -9 12 -8 12 4 0 11 8 16 21
15 17 -1 20 -6 15 -32 -3 -16 -8 -49 -12 -72 -5 -30 -12 -43 -23 -44 -10 0
-11 -2 -3 -6 6 -2 12 -11 12 -19 0 -11 31 -14 178 -15 204 -1 333 -7 341 -15
3 -3 -21 -4 -54 -3 -56 2 -133 -2 -374 -17 -85 -6 -93 -4 -88 10 4 10 3 15 -3
11 -6 -3 -10 -15 -10 -26 0 -18 9 -19 243 -19 172 -1 237 -4 224 -11 -27 -16
-186 -27 -339 -23 -76 1 -138 -1 -138 -5 0 -5 77 -10 172 -13 116 -4 173 -9
176 -17 2 -6 16 -12 30 -12 44 -2 -98 -28 -155 -29 -49 0 -53 -2 -53 -24 0
-50 -8 -56 -75 -56 -65 0 -75 7 -75 50 0 10 -8 20 -19 23 -16 4 -20 -3 -25
-44 -7 -52 -21 -63 -35 -26 -8 21 -9 20 -15 -9 -6 -26 -11 -31 -36 -30 -21 1
-26 4 -18 14 8 9 3 14 -21 18 -29 6 -38 23 -32 58 1 5 -8 6 -21 2 -13 -3 -37
-6 -54 -6 -19 0 -34 -6 -37 -15 -5 -11 -1 -12 18 -5 15 6 27 6 30 -1 4 -5 10
-7 15 -4 5 3 11 1 15 -5 8 -13 -12 -50 -27 -50 -13 0 -58 -39 -58 -51 0 -3 49
-6 110 -5 60 0 110 -2 110 -6 0 -5 10 -8 22 -8 15 0 19 -3 11 -11 -6 -6 -57
-9 -137 -7 l-126 3 -1 -25 c-2 -24 -2 -24 -6 -2 l-4 22 -187 -2 c-158 -3 -187
-5 -187 -18 0 -10 13 -16 43 -18 l42 -3 0 -95 c0 -82 -2 -94 -17 -95 -17 -1
-17 -2 0 -6 14 -4 25 -23 13 -23 -2 0 -11 -3 -20 -6 -10 -4 -16 -1 -16 9 0 23
-31 25 -68 4 l-33 -19 3 148 3 149 35 3 c19 2 96 7 170 10 119 7 132 9 107 20
-16 6 -37 12 -48 12 -21 0 -27 19 -6 21 6 1 28 2 47 4 47 4 48 4 28 16 -10 5
-15 16 -11 25 4 12 0 15 -18 13 -13 -2 -28 -1 -34 3 -5 3 -30 2 -55 -2 -25 -4
-37 -8 -27 -9 28 -2 19 -18 -13 -25 -17 -3 -30 -11 -29 -18 3 -24 -1 -38 -11
-38 -5 0 -7 28 -5 68 2 37 2 58 -2 47 -3 -11 -11 -29 -19 -39 -7 -11 -11 -30
-8 -43 4 -14 2 -23 -6 -23 -6 0 -8 -4 -5 -10 3 -5 0 -10 -8 -10 -19 0 -27 22
-27 71 0 21 -2 39 -5 39 -3 0 -17 -12 -30 -27 l-24 -28 -1 97 c0 87 2 98 20
108 19 10 20 22 22 308 l2 297 6 -325 c3 -179 7 -325 8 -325z m2282 590 c0
-19 -4 -35 -10 -35 -5 0 -10 16 -10 35 0 19 5 35 10 35 6 0 10 -16 10 -35z
m-133 19 c-3 -3 -12 -4 -19 -1 -8 3 -5 6 6 6 11 1 17 -2 13 -5z m100 -14 c-1
-11 -5 -20 -9 -20 -11 0 -20 19 -13 30 11 17 24 11 22 -10z m-1258 -12 c-1
-20 -2 -20 -6 -4 -4 15 -7 16 -13 6 -10 -16 -23 -17 -256 -20 -94 -2 -177 1
-184 5 -8 5 -18 1 -27 -10 -12 -17 -13 -17 -13 -2 0 13 -9 17 -45 17 -52 0
-61 17 -12 23 17 2 150 5 295 5 l262 2 -1 -22z m451 -5 c0 -7 -7 -13 -15 -13
-8 0 -15 6 -15 13 0 8 7 14 15 14 8 0 15 -6 15 -14z m1604 -56 c5 -19 12 -27
24 -25 10 2 17 -3 17 -12 0 -9 -7 -14 -17 -12 -12 2 -18 -4 -18 -18 0 -11 -4
-20 -9 -20 -5 0 -7 10 -4 21 8 28 -24 54 -44 38 -9 -8 -13 -8 -13 0 0 6 -14
11 -31 11 -19 0 -28 4 -24 11 7 10 55 7 88 -6 14 -6 17 -1 18 26 1 35 3 33 13
-14z m-2354 11 c0 -5 -60 -8 -132 -7 -73 1 -122 4 -110 7 33 10 242 9 242 0z
m60 -4 c0 -2 -9 -4 -20 -4 -11 0 -20 4 -20 9 0 5 9 7 20 4 11 -3 20 -7 20 -9z
m80 0 c0 -2 -9 -4 -20 -4 -11 0 -20 4 -20 9 0 5 9 7 20 4 11 -3 20 -7 20 -9z
m-3793 -18 c4 -3 -19 -6 -50 -6 -31 0 -58 4 -61 9 -6 9 102 7 111 -3z m6131
-8 c2 -9 -7 -19 -20 -23 -20 -7 -18 -8 17 -14 24 -4 39 -11 38 -19 -4 -15 13
-16 22 -2 4 6 11 8 16 4 6 -4 6 -11 -1 -19 -8 -10 -7 -15 2 -19 7 -3 1 -4 -14
-1 -24 5 -28 2 -29 -17 l-2 -23 -4 23 c-2 12 -8 22 -12 22 -22 0 -75 -25 -97
-45 -29 -27 -33 -67 -6 -59 13 5 12 1 -5 -13 -12 -10 -25 -32 -30 -49 -7 -27
-11 -30 -30 -23 -31 11 -29 34 5 55 23 13 28 22 24 41 -3 14 -1 28 4 32 5 3
18 23 28 44 16 32 24 37 53 37 18 0 33 5 33 10 0 6 -8 10 -17 10 -10 0 -25 4
-32 9 -12 8 -10 12 11 22 17 7 24 17 21 27 -4 10 -1 13 8 10 8 -3 15 -12 17
-20z m-2030 -10 c3 -17 -10 -18 -175 -16 -134 1 -159 3 -103 8 41 3 86 11 100
18 14 6 59 10 100 9 62 -2 75 -5 78 -19z m172 2 c0 -11 -4 -20 -10 -20 -5 0
-10 9 -10 20 0 11 5 20 10 20 6 0 10 -9 10 -20z m190 16 c0 -2 3 -11 6 -20 5
-14 -6 -16 -92 -15 -55 1 -90 4 -80 6 11 3 26 11 34 19 12 13 132 21 132 10z
m1410 -46 c-6 -12 -14 -20 -17 -17 -2 3 1 14 8 26 17 26 24 19 9 -9z m-2722
13 c-10 -2 -26 -2 -35 0 -10 3 -2 5 17 5 19 0 27 -2 18 -5z m95 0 c-7 -2 -19
-2 -25 0 -7 3 -2 5 12 5 14 0 19 -2 13 -5z m797 -17 c0 -3 -4 -8 -10 -11 -5
-3 -10 -1 -10 4 0 6 5 11 10 11 6 0 10 -2 10 -4z m106 -23 c-2 -16 -4 -41 -5
-58 -1 -21 -4 -26 -10 -16 -7 11 -13 11 -32 -3 -26 -18 -65 -21 -74 -7 -8 13
40 48 76 56 21 5 28 10 21 17 -7 7 -7 15 1 24 19 21 26 16 23 -13z m107 8 c-5
-3 -13 -15 -16 -25 -4 -10 -10 -17 -13 -14 -8 9 18 58 29 51 5 -3 6 -8 0 -12z
m139 -24 c-24 -25 -32 -43 -35 -82 l-3 -50 -2 52 c-2 46 2 55 31 85 17 18 34
32 36 31 3 -2 -9 -18 -27 -36z m-2656 -14 c-3 -21 -8 -74 -11 -118 -6 -89 -24
-272 -31 -323 -3 -18 -9 -30 -15 -27 -5 4 -9 1 -9 -5 0 -6 -4 -9 -9 -6 -9 6
-21 -39 -21 -78 0 -11 -4 -27 -9 -35 -8 -12 -11 -12 -25 1 -8 9 -13 17 -11 20
2 2 5 29 6 61 l2 58 29 -6 c20 -5 28 -3 28 7 0 7 3 23 6 36 6 19 3 22 -26 22
-31 0 -32 1 -27 33 4 17 9 69 13 114 4 52 11 84 19 87 8 3 16 32 20 73 11 118
13 123 47 123 29 0 30 -1 24 -37z m-103 0 c-26 -232 -48 -369 -59 -381 -8 -7
-14 -29 -14 -48 0 -25 -4 -34 -16 -34 -14 0 -16 8 -10 46 3 26 6 55 6 65 0 24
27 25 33 2 4 -16 5 -16 6 0 0 11 -7 21 -18 24 -15 4 -18 12 -14 41 3 21 9 38
13 40 4 1 5 17 3 35 -2 18 -1 56 2 85 6 47 9 53 26 49 10 -3 19 -1 19 4 0 5
-7 9 -15 9 -8 0 -15 5 -15 10 0 6 6 10 14 10 8 0 15 8 15 18 1 40 5 52 16 52
7 0 10 -11 8 -27z m3327 6 c14 -26 3 -99 -14 -99 -18 0 -61 83 -53 103 9 24
54 21 67 -4z m723 4 c11 -10 -24 -43 -45 -43 -20 0 -24 20 -6 38 13 13 41 16
51 5z m-1498 -13 c-3 -5 -11 -10 -16 -10 -6 0 -7 5 -4 10 3 6 11 10 16 10 6 0
7 -4 4 -10z m1723 -25 c-20 -34 -21 -35 -39 -19 -15 14 -17 19 -7 26 7 4 18 8
23 8 6 0 4 -4 -4 -9 -8 -5 -9 -11 -3 -15 5 -3 17 5 26 19 25 38 28 30 4 -10z
m-5998 -30 c0 -7 -4 -16 -8 -19 -8 -5 -6 -118 2 -158 2 -10 1 -18 -4 -18 -9 0
-30 133 -30 191 0 37 2 39 20 29 11 -6 20 -17 20 -25z m2088 -200 c0 -84 -2
-100 -9 -70 -4 22 -7 101 -7 175 1 113 2 124 8 70 4 -36 8 -114 8 -175z m3752
228 c-1 -22 -16 -30 -40 -21 -24 10 -24 11 -5 18 26 11 45 12 45 3z m-5903
-80 c-2 -16 -4 -3 -4 27 0 30 2 43 4 28 2 -16 2 -40 0 -55z m2115 -73 c7 -137
2 -277 -9 -266 -3 3 -5 40 -4 82 1 43 -2 75 -5 71 -4 -4 -6 -21 -6 -39 2 -42
-28 -128 -44 -128 -12 0 -18 66 -29 290 -6 132 -3 142 49 138 l41 -3 7 -145z
m303 120 c1 -14 6 -69 10 -123 7 -89 6 -99 -11 -112 -36 -27 -51 -19 -58 31
-9 71 -7 136 4 129 6 -4 10 15 10 50 0 52 2 56 22 53 15 -2 22 -11 23 -28z
m3855 11 c0 -3 -13 -13 -29 -23 -27 -15 -30 -15 -36 0 -8 21 19 42 45 35 11
-3 20 -8 20 -12z m-3940 -113 c17 -168 13 -187 -33 -203 -41 -14 -48 -6 -47
51 2 212 1 234 -12 234 -10 0 -9 3 2 10 10 6 11 10 3 10 -7 0 -13 5 -13 10 0
6 20 10 44 10 l43 0 13 -122z m1958 19 c4 6 20 13 37 14 24 3 30 0 35 -21 5
-21 0 -29 -29 -47 -26 -16 -32 -23 -21 -27 11 -5 87 -2 119 3 2 1 -2 8 -9 16
-11 13 -8 15 18 15 25 0 29 -3 25 -20 -5 -18 0 -20 35 -20 53 0 72 -8 72 -30
0 -26 -19 -30 -161 -30 -96 0 -129 3 -129 13 0 9 -3 8 -9 -2 -6 -10 -31 -13
-92 -12 -84 2 -127 11 -50 11 26 0 40 4 36 10 -8 13 -175 13 -175 1 0 -6 19
-12 43 -14 38 -3 37 -4 -13 -5 -68 -2 -131 8 -124 19 3 5 1 9 -5 9 -5 0 -12
-6 -14 -12 -3 -7 -6 5 -6 28 -1 50 4 56 35 42 18 -9 28 -8 36 0 14 14 55 16
60 2 2 -5 61 -13 131 -16 86 -5 123 -10 113 -16 -9 -5 -35 -10 -57 -10 -22 0
-38 -2 -35 -5 9 -9 71 -9 84 0 6 5 12 6 12 1 1 -5 7 2 15 16 9 17 13 48 11 95
-2 39 -1 50 1 25 2 -24 7 -39 11 -33z m1852 74 c0 -5 -7 -12 -16 -15 -14 -5
-15 -4 -4 9 14 17 20 19 20 6z m-3640 -13 c0 -7 7 -67 15 -132 14 -117 10
-156 -16 -156 -6 0 -4 7 4 15 27 26 1 66 -45 70 -13 1 -16 12 -23 107 -6 88
-5 97 12 101 34 9 53 7 53 -5z m1898 0 c15 -15 16 -38 0 -38 -14 0 -48 30 -48
42 0 12 34 10 48 -4z m1896 -3 c4 -11 -2 -15 -22 -15 -26 1 -26 1 -8 15 24 18
23 18 30 0z m-6327 -37 c-3 -7 -5 -2 -5 12 0 14 2 19 5 13 2 -7 2 -19 0 -25z
m6030 15 c-4 -3 -2 -12 4 -20 9 -9 8 -13 0 -13 -6 0 -11 -8 -11 -19 0 -10 -9
-21 -20 -24 -15 -4 -20 0 -20 16 0 43 12 67 33 67 11 0 17 -3 14 -7z m-2274
-50 c-18 -132 -49 -277 -60 -281 -18 -5 -16 30 7 172 25 148 28 156 45 156 12
0 13 -10 8 -47z m1652 28 l160 -8 -177 -1 c-205 -2 -186 11 -168 -117 7 -48 7
-71 0 -73 -5 -2 -10 -11 -10 -20 0 -13 2 -14 9 -4 11 19 20 -6 28 -80 4 -39 2
-58 -5 -58 -6 0 -12 -15 -14 -32 -2 -21 -8 1 -15 57 -18 134 -24 225 -14 195
7 -20 9 -21 10 -6 1 11 -5 27 -13 35 -7 9 -16 41 -19 72 l-5 57 36 -5 c20 -2
109 -8 197 -12z m961 -17 c20 -47 12 -64 -41 -96 -42 -25 -75 -28 -75 -7 0 5
-6 9 -14 9 -10 0 -16 -13 -18 -37 l-4 -38 -8 43 c-6 31 -13 42 -23 38 -8 -3
-11 -1 -8 4 8 12 75 13 75 1 0 -14 30 -22 47 -12 14 7 13 10 -6 16 -32 10 -15
25 29 25 21 0 42 5 45 10 3 6 -5 10 -18 10 -41 0 -40 66 1 70 2 0 10 -16 18
-36z m-6329 -61 c-2 -16 -4 -5 -4 22 0 28 2 40 4 28 2 -13 2 -35 0 -50z m-40
15 c-3 -8 -6 -5 -6 6 -1 11 2 17 5 13 3 -3 4 -12 1 -19z m2037 6 c3 -9 6 -88
5 -177 0 -118 -3 -155 -10 -137 -9 21 -22 144 -20 190 2 58 2 108 0 116 -5 27
15 34 25 8z m4076 1 c0 -8 8 -15 18 -15 14 0 15 -2 2 -10 -11 -7 -19 -5 -27 7
-16 20 -17 33 -3 33 6 0 10 -7 10 -15z m-4123 -42 c-3 -10 -5 -2 -5 17 0 19 2
27 5 18 2 -10 2 -26 0 -35z m2568 15 c6 -4 2 -8 -7 -8 -10 0 -18 7 -18 17 0 9
3 12 8 7 4 -5 12 -12 17 -16z m35 7 c0 -8 -5 -15 -11 -15 -5 0 -8 4 -4 9 3 5
-3 12 -12 14 -14 4 -13 5 5 6 13 1 22 -5 22 -14z m1470 6 c0 -5 -7 -12 -16
-15 -24 -9 -28 -7 -14 9 14 17 30 20 30 6z m-122 -9 c6 -1 12 -10 11 -19 0
-10 -3 -13 -5 -6 -3 7 -18 9 -40 6 -25 -4 -34 -2 -34 9 0 12 21 15 68 10z
m-1545 -9 c-7 -2 -21 -2 -30 0 -10 3 -4 5 12 5 17 0 24 -2 18 -5z m2060 -65
c9 -10 17 -22 17 -28 0 -5 8 -7 18 -3 9 3 14 2 9 -2 -4 -5 5 -21 20 -37 17
-18 22 -28 12 -28 -16 0 -79 53 -79 67 0 14 -37 46 -68 59 l-27 12 25 10 c21
9 27 7 40 -11 8 -12 23 -30 33 -39z m-2959 36 c3 -8 2 -12 -4 -9 -6 3 -10 10
-10 16 0 14 7 11 14 -7z m116 6 c0 -5 -4 -10 -10 -10 -5 0 -10 5 -10 10 0 6 5
10 10 10 6 0 10 -4 10 -10z m-200 -31 c0 -5 12 -7 28 -4 76 12 102 13 102 5 0
-12 -32 -21 -82 -22 -24 -1 -48 -5 -54 -9 -16 -12 -52 1 -50 18 4 28 56 39 56
12z m2641 10 c11 -6 18 -16 16 -23 -3 -7 5 -18 16 -26 21 -13 20 -14 -22 -32
-33 -14 -47 -16 -57 -7 -21 17 -17 27 17 44 30 16 30 17 13 36 -19 21 -13 24
17 8z m-5961 -19 c0 -11 -2 -20 -4 -20 -2 0 -6 9 -9 20 -3 11 -1 20 4 20 5 0
9 -9 9 -20z m340 16 c0 -3 -4 -8 -10 -11 -5 -3 -10 -1 -10 4 0 6 5 11 10 11 6
0 10 -2 10 -4z m605 -6 c3 -6 -1 -7 -9 -4 -18 7 -21 14 -7 14 6 0 13 -4 16
-10z m2188 -7 c-7 -2 -21 -2 -30 0 -10 3 -4 5 12 5 17 0 24 -2 18 -5z m2427
-3 c11 -7 2 -10 -32 -10 -27 0 -48 5 -48 10 0 13 60 13 80 0z m650 -57 c-18
-26 -39 -53 -47 -60 -15 -12 -14 -27 14 -143 4 -17 2 -22 -5 -15 -6 6 -17 44
-26 85 -8 41 -20 76 -25 78 -8 3 -8 10 0 23 11 22 34 15 25 -7 -13 -35 18 -9
50 42 20 31 38 53 41 51 3 -3 -10 -27 -27 -54z m-3550 37 c0 -5 -9 -10 -21
-10 -11 0 -17 5 -14 10 3 6 13 10 21 10 8 0 14 -4 14 -10z m-255 -10 c3 -5 -3
-10 -14 -10 -25 0 -37 -18 -22 -33 16 -16 14 -27 -6 -27 -14 0 -15 -2 -4 -9 9
-6 2 -10 -23 -13 -43 -5 -47 6 -7 23 17 8 27 18 24 26 -5 14 23 53 38 53 4 0
11 -4 14 -10z m3190 -1 c-8 -11 -42 -12 -49 -1 -3 5 8 9 25 10 16 0 27 -4 24
-9z m-2015 -9 c0 -5 -7 -10 -16 -10 -8 0 -12 5 -9 10 3 6 10 10 16 10 5 0 9
-4 9 -10z m763 3 c-7 -2 -19 -2 -25 0 -7 3 -2 5 12 5 14 0 19 -2 13 -5z m176
-30 c44 -53 38 -64 -9 -18 -22 21 -40 43 -40 47 0 18 20 6 49 -29z m1577 22
c-11 -8 -22 -12 -25 -9 -6 6 19 24 34 24 6 -1 1 -7 -9 -15z m-2712 -21 c3 -8
2 -12 -4 -9 -6 3 -10 10 -10 16 0 14 7 11 14 -7z m-2320 -78 c-41 -71 -28 -85
34 -38 28 21 34 23 29 9 -4 -10 -7 -28 -7 -39 0 -14 -5 -18 -15 -14 -11 4 -15
-1 -15 -18 0 -20 -4 -23 -21 -19 -11 3 -34 18 -50 32 -26 25 -28 28 -14 48 10
14 12 29 6 49 -14 51 5 70 39 39 16 -14 17 -14 13 12 l-4 28 14 -24 c13 -21
12 -28 -9 -65z m2148 64 c-17 -16 -35 -20 -87 -20 -47 0 -64 4 -62 13 2 14 48
23 121 26 l50 1 -22 -20z m2838 10 c0 -5 7 -6 17 -3 11 5 14 3 8 -6 -4 -8 -2
-17 6 -22 23 -14 4 -19 -24 -6 -26 11 -38 47 -17 47 6 0 10 -4 10 -10z m-2705
-16 c27 -6 28 -7 10 -14 -26 -11 -95 -11 -120 0 -18 8 -17 9 7 9 15 1 29 5 32
10 6 9 13 9 71 -5z m1009 7 c6 -10 -44 -22 -58 -14 -11 7 14 23 36 23 9 0 19
-4 22 -9z m966 -7 c0 -2 -7 -4 -15 -4 -8 0 -15 4 -15 10 0 5 7 7 15 4 8 -4 15
-8 15 -10z m-4650 -29 c0 -19 -27 -26 -34 -9 -3 8 -1 14 4 14 5 0 6 8 3 18 -6
15 -5 15 10 3 9 -7 17 -19 17 -26z m3610 25 c0 -5 -4 -10 -10 -10 -5 0 -10 5
-10 10 0 6 5 10 10 10 6 0 10 -4 10 -10z m1280 -7 c14 -9 29 -23 34 -31 7 -12
10 -12 17 -1 6 10 14 1 28 -31 11 -25 21 -53 21 -63 0 -19 -27 -77 -36 -77 -2
0 3 14 11 30 14 28 14 32 0 46 -9 10 -13 24 -9 39 5 20 1 27 -22 36 -55 22
-74 32 -69 38 3 2 -7 10 -22 17 l-28 12 25 1 c14 1 37 -7 50 -16z m-1990 -8
c0 -9 -6 -12 -15 -9 -8 4 -12 10 -9 15 8 14 24 10 24 -6z m2274 0 c3 -8 13
-15 21 -15 9 0 13 -4 10 -10 -7 -11 -55 16 -55 31 0 15 17 10 24 -6z m-5407
-17 c-3 -8 -6 -5 -6 6 -1 11 2 17 5 13 3 -3 4 -12 1 -19z m2033 -24 c0 -40 -2
-45 -15 -34 -8 7 -15 20 -15 29 -1 13 -3 13 -15 -3 -15 -19 -15 -19 -15 2 0
12 6 22 14 22 7 0 19 7 26 15 18 22 20 19 20 -31z m2250 7 c0 -29 -6 -44 -21
-55 -12 -8 -19 -18 -16 -23 3 -5 2 -33 -3 -63 -4 -30 -8 -42 -9 -26 -1 30 -5
30 -73 10 -16 -5 -18 2 -18 54 0 58 1 60 33 72 17 7 36 12 40 11 5 -1 6 3 3 8
-3 5 1 14 9 21 8 7 15 9 15 4 0 -5 5 -1 11 9 17 29 29 19 29 -22z m1940 25 c0
-7 -7 -19 -16 -27 -13 -10 -17 -10 -24 1 -4 7 -6 19 -3 27 7 17 43 17 43 -1z
m-1290 -15 c0 -10 -30 -24 -37 -17 -3 3 -2 9 2 15 8 13 35 15 35 2z m710 -11
c0 -5 -9 -10 -19 -10 -11 0 -23 5 -26 10 -4 6 5 10 19 10 14 0 26 -4 26 -10z
m-5090 -31 c0 -28 -15 -23 -16 6 -1 14 2 22 7 19 5 -3 9 -14 9 -25z m1260 15
c11 -12 11 -18 -2 -31 -20 -20 -35 -11 -32 19 3 29 2 28 13 28 5 0 14 -7 21
-16z m3764 -15 c-4 -6 -11 -6 -20 2 -21 17 -17 31 6 19 11 -6 18 -15 14 -21z
m-3069 -21 c-16 -105 -16 -106 -41 -111 -35 -6 -93 52 -92 93 1 16 5 30 10 30
5 0 7 4 3 9 -6 11 22 18 83 20 l44 1 -7 -42z m1505 3 c0 -4 -10 -12 -21 -20
-19 -11 -25 -10 -48 13 -21 22 -23 28 -12 35 14 9 81 -15 81 -28z m800 29 c0
-5 -4 -10 -10 -10 -5 0 -10 5 -10 10 0 6 5 10 10 10 6 0 10 -4 10 -10z m-696
-44 c9 -14 16 -36 16 -48 0 -22 -1 -22 -25 7 -13 17 -22 36 -20 43 3 7 0 10
-5 7 -6 -3 -10 -4 -10 -1 0 2 -3 12 -7 21 -5 15 -3 16 14 7 11 -6 28 -22 37
-36z m811 20 c0 -13 -4 -28 -8 -32 -10 -10 -37 -14 -38 -6 0 4 -2 16 -4 26 -5
27 2 36 29 36 17 0 22 -6 21 -24z m-5798 -18 c-3 -7 -5 -2 -5 12 0 14 2 19 5
13 2 -7 2 -19 0 -25z m904 5 c-12 -20 -14 -14 -5 12 4 9 9 14 11 11 3 -2 0
-13 -6 -23z m189 17 c0 -5 -4 -10 -10 -10 -5 0 -10 5 -10 10 0 6 5 10 10 10 6
0 10 -4 10 -10z m4120 -10 c0 -5 -7 -7 -15 -4 -8 4 -15 8 -15 10 0 2 7 4 15 4
8 0 15 -4 15 -10z m-3116 -45 c-5 -29 -9 -34 -15 -22 -6 9 -5 26 3 41 15 35
21 26 12 -19z m4025 24 c-16 -10 -23 -4 -14 10 3 6 11 8 17 5 6 -4 5 -9 -3
-15z m37 6 c-4 -24 -16 -30 -16 -7 0 12 4 22 9 22 5 0 8 -7 7 -15z m799 3 c19
1 18 0 -4 -19 -28 -23 -35 -24 -55 -4 -8 8 -20 15 -26 15 -6 0 -8 5 -4 11 4 7
18 8 38 4 17 -4 40 -7 51 -7z m-4428 -20 c-3 -8 -6 -5 -6 6 -1 11 2 17 5 13 3
-3 4 -12 1 -19z m2672 -10 l36 -23 -30 -3 c-29 -3 -30 -5 -27 -44 5 -50 -13
-44 -22 7 -4 20 -11 33 -17 30 -10 -7 -11 1 -3 33 4 12 11 22 16 22 6 0 27
-10 47 -22z m1247 11 c4 -7 0 -9 -13 -5 -15 5 -25 -1 -38 -20 l-17 -26 -20 20
c-11 11 -17 25 -14 31 9 14 93 14 102 0z m-3746 -14 c0 -19 -9 -19 -34 0 -19
14 -19 15 7 15 17 0 27 -5 27 -15z m2754 -1 c3 -8 2 -12 -4 -9 -6 3 -10 10
-10 16 0 14 7 11 14 -7z m-2562 -33 c6 -44 -7 -71 -37 -71 -19 0 -25 5 -25 23
0 13 5 28 11 34 7 7 -5 13 -43 19 l-53 8 65 6 c36 4 68 7 71 8 4 1 9 -11 11
-27z m1605 23 c-3 -3 -12 -4 -19 -1 -8 3 -5 6 6 6 11 1 17 -2 13 -5z m827 -9
c3 -8 1 -15 -4 -15 -6 0 -10 7 -10 15 0 8 2 15 4 15 2 0 6 -7 10 -15z m36 5
c0 -5 -4 -10 -10 -10 -5 0 -10 5 -10 10 0 6 5 10 10 10 6 0 10 -4 10 -10z
m-3299 -47 c-9 -16 -10 -15 -11 8 0 14 3 29 8 33 12 12 14 -22 3 -41z m2832
-25 c2 -32 0 -58 -5 -58 -4 0 -8 18 -8 40 0 44 -2 45 -30 28 -15 -10 -23 -9
-39 6 -44 40 -17 60 39 31 29 -15 30 -15 31 7 1 37 7 8 12 -54z m1153 60 c7
-12 -38 -58 -58 -58 -6 0 -8 11 -6 25 4 17 0 29 -11 35 -12 7 -5 9 26 10 23 0
45 -5 49 -12z m-1506 -6 c0 -5 -10 -13 -21 -18 -15 -7 18 -10 108 -11 127 -1
181 -8 168 -21 -4 -4 -124 -10 -268 -13 -144 -4 -276 -9 -293 -12 -29 -5 -32
-3 -36 24 -4 24 -1 29 16 29 73 1 155 10 176 19 31 12 150 14 150 3z m680 -34
c0 -13 -23 -5 -28 10 -2 7 2 10 12 6 9 -3 16 -11 16 -16z m900 6 c0 -8 -4 -12
-10 -9 -5 3 -10 10 -10 16 0 5 5 9 10 9 6 0 10 -7 10 -16z m540 10 c0 -5 -64
-34 -75 -34 -4 0 -3 5 0 11 12 18 75 38 75 23z m-6661 -214 c3 42 29 180 30
164 1 -7 12 -15 25 -18 13 -3 31 -17 40 -31 14 -21 20 -24 36 -15 18 10 20 7
21 -22 2 -32 2 -32 9 7 l7 40 2 -47 c0 -27 -3 -48 -9 -48 -5 0 -10 -4 -10 -10
0 -18 -41 -52 -73 -61 -49 -14 -57 -11 -58 19 -3 63 -22 -79 -23 -173 0 -80 3
-107 18 -135 12 -21 19 -57 20 -90 1 -50 -1 -55 -21 -58 -13 -2 -23 -8 -23
-13 0 -5 -4 -9 -9 -9 -12 0 -14 263 -4 505 l8 200 5 -120 c4 -66 7 -104 9 -85z
m1569 193 c-43 -2 -113 -2 -155 0 -43 1 -8 3 77 3 85 0 120 -2 78 -3z m2449 1
c-3 -3 -12 -4 -19 -1 -8 3 -5 6 6 6 11 1 17 -2 13 -5z m-581 -24 c0 -11 -4
-20 -8 -20 -4 0 -8 9 -8 20 0 11 4 20 8 20 4 0 8 -9 8 -20z m1344 -21 c38 -1
51 -4 32 -6 -19 -3 -30 -9 -26 -15 4 -7 -11 -9 -43 -7 l-50 4 16 -24 c15 -24
15 -24 -12 -19 -26 5 -32 -2 -27 -27 1 -5 -7 -1 -18 10 -12 13 -15 22 -8 27
16 11 2 18 -38 20 -20 1 -36 5 -36 9 0 19 57 38 100 34 25 -2 74 -4 110 -6z
m595 6 c-30 -12 -95 -22 -95 -15 0 5 10 11 23 13 28 5 85 7 72 2z m1014 -21
c-17 -21 -31 -17 -17 5 7 11 16 17 20 14 5 -2 4 -11 -3 -19z m-4605 0 c3 -8 2
-12 -4 -9 -6 3 -10 10 -10 16 0 14 7 11 14 -7z m1379 4 c4 -10 8 -10 14 -1 13
18 233 17 233 -1 0 -20 -18 -22 -215 -23 -133 -1 -171 1 -146 9 26 7 31 12 20
19 -9 6 3 9 38 9 32 0 53 -5 56 -12z m1382 -5 c-22 -13 -63 -18 -156 -21 -157
-5 -175 -2 -134 21 24 13 58 16 175 16 140 0 144 0 115 -16z m1738 -44 c-10
-4 -21 -8 -24 -8 -4 -1 -4 25 0 48 1 2 10 -4 22 -15 19 -17 19 -19 2 -25z
m-1249 16 c-4 -8 -10 -15 -15 -15 -5 0 -9 7 -9 15 0 8 7 15 15 15 9 0 12 -6 9
-15z m243 -22 c-3 -10 -5 -4 -5 12 0 17 2 24 5 18 2 -7 2 -21 0 -30z m-3637
12 c0 -2 -10 -9 -22 -15 -22 -11 -22 -10 -4 4 21 17 26 19 26 11z m3467 -17
c-3 -8 -6 -5 -6 6 -1 11 2 17 5 13 3 -3 4 -12 1 -19z m383 -3 c0 -9 -6 -12
-15 -9 -8 4 -12 10 -9 15 8 14 24 10 24 -6z m1016 -10 c-11 -8 -29 -15 -40
-14 -15 0 -10 4 14 13 46 18 48 18 26 1z m-5932 -7 c-3 -4 10 -5 28 -2 l33 5
-30 -14 c-17 -8 -34 -11 -39 -6 -6 5 -18 1 -30 -9 -20 -17 -20 -17 -1 9 17 23
52 39 39 17z m4704 -32 c-1 -19 5 -42 13 -52 7 -10 9 -15 3 -11 -8 5 -11 -4
-9 -26 2 -17 4 -32 5 -32 1 0 3 -18 5 -40 2 -22 4 -57 6 -77 2 -21 7 -38 11
-38 15 0 7 -131 -8 -137 -8 -3 -11 -9 -8 -14 3 -5 9 -7 13 -4 5 2 11 -16 15
-42 12 -87 14 -83 -61 -81 -38 1 -52 3 -33 5 l35 4 -5 87 c-4 62 -9 86 -17 84
-15 -2 -18 44 -3 53 13 8 13 55 -1 55 -5 0 -7 5 -4 10 10 17 23 11 28 -12 3
-13 5 38 5 112 0 170 1 190 7 190 3 0 5 -15 3 -34z m1004 -14 c-7 -36 -27 -6
-23 36 1 10 4 10 14 0 8 -6 11 -23 9 -36z m-1862 29 c0 -11 -61 -43 -68 -36
-3 2 3 7 12 11 9 3 16 12 16 20 0 8 9 14 20 14 11 0 20 -4 20 -9z m743 2 c-7
-2 -21 -2 -30 0 -10 3 -4 5 12 5 17 0 24 -2 18 -5z m290 -115 c4 -68 14 -177
22 -243 8 -65 15 -141 15 -167 0 -43 -2 -48 -22 -48 -19 0 -23 6 -25 32 -2 18
1 47 6 65 6 20 4 78 -4 155 -19 177 -23 328 -9 328 7 0 13 -42 17 -122z
m-1586 80 c-3 -7 -5 -2 -5 12 0 14 2 19 5 13 2 -7 2 -19 0 -25z m1681 -70 c-1
-99 -2 -100 -7 -33 -3 39 -4 85 -2 103 7 63 11 31 9 -70z m31 -198 c1 -124 -3
-231 -8 -238 -4 -7 -8 112 -8 265 0 166 3 262 8 238 4 -22 8 -141 8 -265z m41
20 c0 -217 3 -280 13 -280 8 0 13 26 15 88 2 59 8 92 17 101 8 8 17 12 21 8 3
-3 10 -50 14 -104 l7 -98 2 98 c0 53 4 97 9 97 4 0 18 -7 30 -16 18 -12 26
-13 37 -4 8 7 15 10 15 7 0 -3 3 -13 7 -23 5 -13 3 -16 -10 -11 -15 6 -17 -3
-17 -68 l0 -75 48 0 48 0 -6 55 c-3 30 -2 55 2 55 5 0 4 9 -2 19 -5 11 -10 29
-10 41 0 18 3 19 20 10 14 -8 20 -8 20 0 0 6 4 9 8 6 4 -2 5 -35 2 -73 -4 -37
-6 -80 -5 -94 l2 -26 -96 -5 c-84 -3 -302 6 -244 10 20 2 22 9 28 90 13 193
16 322 7 322 -5 0 -10 23 -11 51 -1 28 2 48 7 45 4 -2 7 8 6 25 -1 16 2 29 7
29 5 0 9 -121 9 -280z m160 102 c1 -96 6 -160 11 -156 5 3 7 10 4 15 -4 5 -1
9 4 9 14 0 14 -6 0 -32 -8 -15 -8 -19 0 -14 6 4 11 2 11 -3 0 -6 4 -11 9 -11
4 0 7 10 6 23 -1 12 0 14 2 4 2 -9 9 -15 14 -12 15 10 10 -12 -6 -25 -12 -10
-18 -10 -32 1 -13 11 -17 11 -20 2 -3 -7 -9 -13 -14 -13 -6 0 -8 4 -5 9 3 5
-8 14 -24 21 -39 16 -41 50 -4 50 23 0 25 4 24 33 -6 98 1 280 10 271 5 -5 10
-82 10 -172z m-1975 148 c3 6 11 10 16 10 5 0 1 -10 -10 -22 -18 -18 -22 -19
-38 -7 -11 9 -14 10 -9 2 4 -7 3 -13 -3 -13 -5 0 -13 5 -16 10 -4 6 -11 8 -16
5 -5 -4 -9 -2 -9 4 0 21 34 30 57 16 14 -9 24 -11 28 -5z m785 4 c0 -2 -16 -4
-35 -4 -19 0 -35 4 -35 8 0 4 16 6 35 4 19 -2 35 -6 35 -8z m-3035 -16 c-3
-13 -18 -87 -34 -165 l-28 -143 22 0 c29 0 39 -25 19 -45 -14 -13 -13 -15 5
-15 25 0 26 -7 3 -41 -12 -19 -22 -24 -36 -19 -23 8 -66 1 -66 -10 0 -4 -7
-11 -16 -14 -17 -6 -12 6 14 37 14 16 12 17 -21 17 -19 0 -38 -6 -40 -12 -3
-7 -6 1 -6 18 -1 47 -50 56 -51 10 0 -5 -2 -7 -5 -5 -2 3 0 21 5 41 9 30 14
35 35 30 14 -2 25 -8 25 -13 0 -5 15 -2 32 7 l33 17 -28 -36 c-34 -44 -34 -54
-2 -33 27 18 49 21 40 6 -3 -5 -1 -10 5 -10 6 0 10 17 10 43 -2 66 61 357 77
357 9 0 12 -8 8 -22z m2400 13 c3 -5 -4 -13 -16 -16 -12 -4 -42 -25 -65 -47
-24 -22 -44 -35 -44 -29 0 7 -4 9 -10 6 -26 -16 -6 16 28 44 20 17 42 36 47
41 13 12 52 13 60 1z m-255 -46 c21 -19 28 -19 33 3 3 13 6 11 16 -12 6 -15
21 -36 33 -46 20 -16 20 -20 9 -49 -16 -37 -27 -39 -35 -7 -3 13 -22 36 -42
51 -27 21 -33 30 -23 36 11 6 9 9 -7 9 -11 0 -33 14 -50 31 l-29 31 40 -16
c21 -9 47 -23 55 -31z m790 30 c-29 -16 -60 -19 -60 -6 0 11 23 18 60 19 l25
1 -25 -14z m1017 -87 c-2 -18 -4 -6 -4 27 0 33 2 48 4 33 2 -15 2 -42 0 -60z
m780 66 c-3 -3 -12 -4 -19 -1 -8 3 -5 6 6 6 11 1 17 -2 13 -5z m53 -1 c0 -5
-5 -15 -10 -23 -7 -12 -9 -10 -7 8 1 19 17 33 17 15z m-5447 -36 c-7 -11 -23
2 -23 19 0 12 2 12 14 2 8 -7 12 -16 9 -21z m5017 -14 c-1 -40 -2 -45 -12 -29
-19 33 -14 74 10 76 1 0 2 -21 2 -47z m138 -274 c9 -1 20 -1 25 0 4 0 7 -6 7
-14 0 -18 -23 -19 -51 -4 -15 8 -19 17 -15 40 3 24 1 29 -10 25 -8 -3 -14 -1
-14 4 0 6 7 10 16 10 9 0 14 5 12 11 -2 6 -7 10 -12 9 -13 -2 -26 22 -26 49 0
16 4 22 15 17 12 -4 15 4 17 42 0 26 2 52 3 57 2 6 4 26 6 45 2 19 5 -38 6
-127 3 -146 5 -163 21 -164z m207 301 c-27 -12 -35 -12 -35 0 0 6 12 10 28 9
24 0 25 -1 7 -9z m-1809 -15 c-4 -10 1 -15 14 -15 11 0 20 -4 20 -10 0 -18
-35 -11 -47 9 -10 15 -10 21 0 24 19 8 19 8 13 -8z m970 -11 c-3 -9 -6 -28 -6
-42 0 -21 -2 -24 -10 -12 -16 25 -12 70 6 70 11 0 14 -5 10 -16z m-308 -11
c-2 -10 -13 -19 -26 -21 -26 -4 -28 6 -4 24 24 18 34 17 30 -3z m1157 -21 c2
-12 -1 -22 -6 -22 -6 0 -7 -4 -4 -10 3 -5 14 -10 24 -10 10 0 25 -7 32 -17 13
-15 12 -15 -10 -4 -19 11 -25 11 -32 0 -4 -7 -9 -11 -11 -9 -21 33 -27 50 -17
50 7 0 10 12 7 30 -5 34 10 26 17 -8z m-1116 -58 c4 -53 10 -79 20 -82 8 -3
11 0 7 7 -9 14 26 2 36 -13 4 -6 8 -39 8 -73 0 -60 -1 -62 -30 -68 -31 -7 -37
-19 -21 -44 5 -8 19 -12 35 -9 20 4 26 1 26 -13 0 -9 3 -24 6 -33 5 -12 0 -16
-19 -16 -14 0 -28 -4 -31 -9 -3 -5 -14 -11 -23 -13 -16 -4 -18 3 -18 71 0 42
-4 146 -8 231 -9 157 0 205 12 64z m-2169 67 c13 -1 15 -31 15 -209 l0 -207
-64 -3 -64 -3 6 83 c4 46 7 142 7 213 l0 130 43 -1 c23 -1 49 -2 57 -3z m2280
5 c0 -2 -16 -6 -35 -8 -19 -2 -35 0 -35 4 0 4 16 8 35 8 19 0 35 -2 35 -4z
m710 -100 c0 -65 -4 -107 -11 -112 -6 -3 -9 -17 -6 -30 3 -19 2 -22 -9 -13 -8
6 -11 15 -8 20 3 5 -2 9 -10 9 -8 0 -18 5 -21 10 -4 6 -1 9 7 8 7 -2 12 3 10
11 -2 8 3 11 13 8 10 -4 15 0 15 12 0 10 -7 21 -15 25 -8 3 -15 13 -15 22 0
10 5 14 15 10 11 -4 15 2 15 23 0 16 -6 32 -12 35 -10 5 -10 7 0 12 10 5 10 9
1 20 -9 11 -8 14 2 14 11 0 11 2 -1 10 -12 8 -11 10 8 10 21 0 22 -3 22 -104z
m328 84 c-7 -10 -14 -17 -17 -15 -4 4 18 35 25 35 2 0 -1 -9 -8 -20z m-3508
-126 c0 -114 0 -115 -26 -124 -14 -6 -30 -10 -35 -10 -5 0 -9 56 -9 129 0 115
2 130 18 134 9 2 25 0 35 -5 15 -8 17 -24 17 -124z m261 127 c-14 -9 -13 -74
5 -327 4 -65 3 -72 -15 -77 -11 -2 -22 -2 -25 1 -3 3 -6 97 -6 209 l0 203 28
0 c19 0 23 -3 13 -9z m72 -3 c-4 -7 -6 -94 -4 -193 3 -172 2 -181 -18 -199
l-21 -19 0 211 0 212 26 0 c18 0 23 -4 17 -12z m59 -182 c-2 -155 -6 -197 -17
-206 -13 -11 -15 14 -15 194 0 190 1 206 18 206 16 0 17 -15 14 -194z m56 137
c-5 -32 -8 -94 -7 -138 3 -131 -1 -199 -8 -191 -5 4 -8 93 -8 197 0 166 2 189
16 189 13 0 14 -8 7 -57z m78 -88 c1 -80 3 -159 4 -176 2 -18 -2 -34 -11 -40
-10 -6 -10 -9 -1 -9 6 0 12 -4 12 -10 0 -5 -9 -10 -20 -10 -19 0 -20 7 -20
195 0 179 1 195 18 195 15 0 17 -14 18 -145z m47 -41 c-1 -102 -4 -188 -7
-192 -3 -3 -6 81 -6 186 0 106 3 192 8 192 4 0 6 -84 5 -186z m-3356 139 c-3
-10 -5 -4 -5 12 0 17 2 24 5 18 2 -7 2 -21 0 -30z m4085 1 c17 -29 17 -30 -1
-31 -25 -2 -53 30 -45 51 9 23 25 16 46 -20z m2368 32 c0 -3 -4 -8 -10 -11 -5
-3 -10 -1 -10 4 0 6 5 11 10 11 6 0 10 -2 10 -4z m-5700 -16 c0 -5 -2 -10 -4
-10 -3 0 -8 5 -11 10 -3 6 -1 10 4 10 6 0 11 -4 11 -10z m120 -51 c10 0 11 -2
3 -6 -7 -2 -13 -9 -13 -15 0 -6 7 -8 15 -4 9 3 15 0 15 -9 0 -26 -35 -16 -70
20 -33 34 -33 35 -14 49 17 13 20 12 34 -10 8 -13 21 -24 30 -25z m3136 19
l29 -33 -32 29 c-31 28 -38 36 -30 36 2 0 16 -15 33 -32z m1024 7 c-15 -18 1
-20 18 -3 9 9 16 7 32 -7 18 -16 20 -30 20 -137 0 -110 -1 -118 -19 -118 -13
0 -21 9 -26 30 -4 18 -11 27 -18 23 -7 -4 -8 0 -4 10 4 10 10 24 14 33 5 14 3
15 -15 5 -11 -6 -23 -11 -26 -11 -7 0 5 171 13 188 0 1 6 2 12 2 8 0 8 -5 -1
-15z m1435 -5 c10 -11 15 -23 12 -27 -4 -3 -7 -1 -7 5 0 7 -7 12 -16 12 -8 0
-13 4 -10 9 4 5 0 12 -6 14 -8 3 -8 6 -2 6 6 1 19 -8 29 -19z m-645 1 c0 -5
-7 -11 -14 -14 -10 -4 -13 -1 -9 9 6 15 23 19 23 5z m520 -36 c0 -5 -5 -3 -10
5 -5 8 -10 20 -10 25 0 6 5 3 10 -5 5 -8 10 -19 10 -25z m-413 3 c-3 -8 -6 -5
-6 6 -1 11 2 17 5 13 3 -3 4 -12 1 -19z m323 -9 c0 -6 -7 -8 -16 -5 -9 3 -18
6 -20 6 -2 0 -4 7 -4 15 0 13 4 14 20 5 11 -6 20 -16 20 -21z m-366 15 c9 -3
16 -14 16 -24 0 -13 -6 -16 -25 -12 -24 4 -33 21 -18 35 8 8 8 8 27 1z m-4277
-26 c-3 -8 -6 -5 -6 6 -1 11 2 17 5 13 3 -3 4 -12 1 -19z m2009 13 c-3 -5 -15
-11 -26 -14 -17 -4 -19 -3 -9 9 12 15 44 20 35 5z m2820 -46 c-2 -18 1 -22 13
-17 14 5 14 4 2 -12 -14 -17 -16 -17 -29 1 -10 13 -16 14 -19 6 -3 -7 -10 -13
-16 -13 -7 1 -2 9 11 19 12 11 17 21 11 23 -5 2 -7 11 -3 21 9 25 33 3 30 -28z
m-2726 25 c0 -5 -2 -10 -4 -10 -3 0 -8 5 -11 10 -3 6 -1 10 4 10 6 0 11 -4 11
-10z m2605 -18 c3 -16 0 -19 -13 -15 -9 4 -11 8 -5 10 7 3 9 12 6 21 -3 9 -3
14 1 11 4 -4 8 -16 11 -27z m-2290 -2 c4 -6 -5 -10 -19 -10 -14 0 -26 5 -26
10 0 6 9 10 19 10 11 0 23 -4 26 -10z m1642 -12 c-3 -8 -6 -5 -6 6 -1 11 2 17
5 13 3 -3 4 -12 1 -19z m226 -2 c3 -8 -2 -16 -14 -19 -14 -4 -19 0 -19 14 0
22 25 26 33 5z m-1823 -11 c10 -12 10 -15 0 -15 -7 0 -18 -6 -24 -14 -8 -10
-22 -12 -56 -6 -43 7 -43 8 -10 9 26 1 31 4 20 11 -13 8 -13 9 0 14 8 2 22 7
30 9 24 8 27 8 40 -8z m460 -5 c36 0 41 -3 27 -11 -9 -5 -22 -7 -27 -4 -18 11
-10 -35 9 -54 18 -18 18 -20 3 -26 -12 -5 -13 -9 -4 -12 25 -10 11 -19 -24
-15 -25 3 -32 7 -23 13 9 5 -7 9 -43 9 -39 0 -58 4 -60 13 0 6 -4 -8 -8 -33
-6 -37 -7 -30 -8 44 l-2 88 58 -5 c31 -4 77 -7 102 -7z m1967 4 c-3 -3 -12 -4
-19 -1 -8 3 -5 6 6 6 11 1 17 -2 13 -5z m63 2 c0 -9 -30 -14 -35 -6 -4 6 3 10
14 10 12 0 21 -2 21 -4z m403 -16 c-3 -11 -9 -20 -14 -20 -10 0 -12 24 -2 33
13 13 21 7 16 -13z m-719 -6 c9 -8 16 -11 16 -5 0 6 8 11 18 11 12 0 14 -2 4
-8 -8 -5 -10 -16 -6 -27 7 -17 4 -17 -24 4 -18 12 -32 27 -32 32 0 13 6 11 24
-7z m-5297 -35 c-12 -19 -27 -16 -27 4 0 7 8 13 19 13 15 0 16 -4 8 -17z
m2750 -6 c-4 -3 -19 -2 -34 2 l-28 8 30 6 c28 6 45 -3 32 -16z m2648 17 c3 -5
-1 -22 -9 -37 -9 -17 -16 -22 -16 -13 -1 8 -3 25 -4 38 -3 22 17 31 29 12z
m212 -22 c-6 -4 -15 -2 -19 5 -14 21 -9 28 12 15 13 -9 16 -14 7 -20z m333 22
c0 -5 -7 -10 -16 -10 -8 0 -12 5 -9 10 3 6 10 10 16 10 5 0 9 -4 9 -10z
m-2873 -14 c-4 -10 -1 -13 7 -10 8 3 17 1 21 -5 3 -6 -1 -11 -9 -11 -9 0 -16
-4 -16 -10 0 -5 5 -10 10 -10 6 0 10 -7 10 -15 0 -22 -40 -19 -41 3 -1 9 -1
21 0 25 1 5 -4 5 -11 1 -23 -15 -44 -11 -45 9 -2 15 3 18 22 14 14 -2 30 2 36
9 15 18 23 18 16 0z m1948 3 c-4 -6 1 -16 10 -23 15 -10 16 -16 6 -32 -11 -18
-12 -18 -6 2 4 14 0 24 -10 28 -17 6 -21 36 -4 36 5 0 7 -5 4 -11z m242 -6 c2
-6 -5 -13 -17 -16 -11 -3 -20 0 -20 5 0 7 -5 7 -12 1 -13 -10 -84 8 -73 18 9
10 119 2 122 -8z m203 7 c12 -8 12 -10 -5 -10 -14 0 -20 -7 -20 -24 0 -13 3
-22 8 -19 9 5 22 -26 13 -34 -12 -13 -36 21 -36 52 0 44 11 54 40 35z m259
-22 c-5 -10 -12 -18 -14 -18 -3 0 -5 8 -5 18 0 10 7 19 14 19 11 0 13 -5 5
-19z m-238 -11 c-10 -9 -11 -8 -5 6 3 10 9 15 12 12 3 -3 0 -11 -7 -18z m90 4
c19 -16 22 -22 12 -32 -11 -11 -13 -10 -13 3 0 9 -10 24 -22 32 -12 9 -17 16
-11 16 6 0 21 -9 34 -19z m264 8 l50 -1 -37 -10 c-21 -6 -38 -14 -38 -19 0 -4
-8 -6 -17 -2 -12 3 -10 -1 5 -12 19 -14 26 -15 35 -5 9 10 9 11 0 6 -7 -4 -13
-3 -13 3 0 14 36 24 60 16 28 -9 25 -24 -12 -62 -38 -39 -51 -41 -66 -8 -7 15
-17 22 -26 19 -17 -6 -43 42 -38 69 3 14 10 17 25 13 12 -3 45 -6 72 -7z
m-3115 -9 c10 -7 11 -10 2 -10 -9 0 -11 -20 -6 -82 6 -79 5 -82 -11 -66 -13
12 -19 38 -23 92 -5 79 1 90 38 66z m2988 -40 c15 0 20 -4 16 -15 -4 -10 -13
-13 -25 -10 -20 7 -26 -9 -8 -21 8 -4 7 -9 -2 -15 -11 -7 -10 -12 6 -28 11
-11 29 -22 40 -24 25 -5 55 -16 79 -29 15 -8 18 -7 13 6 -9 22 -4 20 24 -10
22 -24 22 -26 3 -16 -12 6 -23 9 -26 7 -3 -3 -26 -7 -51 -9 -42 -4 -47 -3 -47
15 0 16 -6 20 -27 18 -42 -3 -61 9 -57 37 1 13 -2 24 -7 24 -5 0 -9 4 -9 9 0
4 12 6 28 4 l27 -5 -30 26 c-16 14 -25 26 -20 25 22 -3 24 2 14 28 l-10 28 23
-23 c14 -12 34 -22 46 -22z m-2739 6 c9 -11 8 -15 -5 -20 -9 -4 -19 -4 -22 -1
-3 3 0 5 8 5 10 0 10 3 0 15 -7 8 -8 15 -2 15 5 0 15 -6 21 -14z m1501 -62 c0
-36 -4 -64 -10 -64 -5 0 -10 9 -10 20 0 13 -5 18 -15 14 -12 -5 -15 2 -15 34
0 55 7 71 31 65 16 -5 19 -14 19 -69z m1480 56 c0 -5 -8 -11 -17 -13 -10 -3
-1 -5 20 -6 44 -1 50 -22 12 -39 -34 -16 -45 -15 -45 3 0 17 -16 20 -24 6 -9
-14 5 -42 18 -34 6 3 8 3 4 -2 -10 -10 -77 -14 -84 -4 -2 4 9 16 26 25 16 10
30 24 30 31 0 7 5 13 10 13 6 0 10 9 10 19 0 14 5 18 20 14 11 -3 20 -9 20
-13z m-1383 -12 c-3 -8 -6 -5 -6 6 -1 11 2 17 5 13 3 -3 4 -12 1 -19z m513 7
c0 -2 -7 -5 -15 -9 -9 -3 -15 0 -15 9 0 9 6 12 15 9 8 -4 15 -7 15 -9z m108 9
c-9 -8 34 -51 57 -57 13 -3 9 -5 -12 -6 -24 -1 -37 5 -49 24 -14 22 -13 45 3
45 4 0 4 -3 1 -6z m32 -4 c0 -5 -2 -10 -4 -10 -3 0 -8 5 -11 10 -3 6 -1 10 4
10 6 0 11 -4 11 -10z m-350 -54 c0 -36 -18 -88 -21 -61 -6 69 -10 92 -13 101
-3 7 3 10 15 7 15 -4 19 -14 19 -47z m380 44 c0 -5 -5 -10 -11 -10 -5 0 -7 5
-4 10 3 6 8 10 11 10 2 0 4 -4 4 -10z m140 -20 c8 -5 11 -10 5 -10 -5 0 -21
10 -35 21 -24 20 -5 13 30 -11z m-405 10 c3 -5 2 -10 -4 -10 -5 0 -13 5 -16
10 -3 6 -2 10 4 10 5 0 13 -4 16 -10z m-1462 -7 c-7 -2 -19 -2 -25 0 -7 3 -2
5 12 5 14 0 19 -2 13 -5z m1587 -3 c0 -5 -4 -10 -10 -10 -5 0 -10 5 -10 10 0
6 5 10 10 10 6 0 10 -4 10 -10z m413 -20 c3 -10 -1 -21 -9 -24 -8 -3 -11 0 -7
10 3 8 -3 21 -13 29 -18 13 -18 14 3 9 11 -3 23 -14 26 -24z m-5628 -2 c-51
-9 -80 -10 -72 -2 10 11 71 21 92 15 14 -4 9 -7 -20 -13z m6280 12 c-3 -5 -10
-10 -16 -10 -5 0 -9 5 -9 10 0 6 7 10 16 10 8 0 12 -4 9 -10z m-5732 -15 c-3
-9 -8 -14 -10 -11 -3 3 -2 9 2 15 9 16 15 13 8 -4z m3167 11 c0 -3 -4 -8 -10
-11 -5 -3 -10 -1 -10 4 0 6 5 11 10 11 6 0 10 -2 10 -4z m540 -16 c0 -13 -7
-20 -19 -20 -11 0 -23 -4 -26 -10 -3 -5 -15 -15 -25 -20 -16 -8 -18 -8 -14 5
4 8 12 15 20 15 8 0 14 5 14 10 0 13 -6 13 -31 0 -10 -6 -19 -8 -19 -5 0 6 79
44 93 45 4 0 7 -9 7 -20z m945 -20 c4 0 3 5 0 10 -3 6 -1 10 5 10 19 0 5 -23
-15 -26 -24 -4 -37 15 -22 31 10 10 14 9 19 -6 4 -10 10 -19 13 -19z m1040 15
c0 -13 -8 -19 -28 -19 -37 -2 -44 10 -12 18 15 4 23 11 19 18 -4 6 -1 9 7 6 8
-3 14 -13 14 -23z m-2848 4 c-10 -6 -25 -8 -33 -5 -8 3 -14 -1 -14 -9 0 -9 6
-12 18 -8 9 3 14 3 11 -1 -4 -4 -16 -9 -28 -11 -16 -3 -21 0 -19 13 2 11 -3
16 -14 14 -9 -1 -19 1 -22 6 -3 5 23 10 57 10 48 2 58 -1 44 -9z m140 -41 c-2
-13 -4 -5 -4 17 -1 22 1 32 4 23 2 -10 2 -28 0 -40z m56 25 c-7 -2 -21 -2 -30
0 -10 3 -4 5 12 5 17 0 24 -2 18 -5z m-3408 -19 c17 -8 22 -12 12 -9 -10 3
-32 5 -48 5 -16 0 -29 5 -29 10 0 14 30 12 65 -6z m325 -7 c28 -17 25 -34 -7
-40 -18 -4 -32 -1 -39 9 -6 8 -14 14 -18 14 -9 0 -36 26 -36 36 0 10 77 -4
100 -19z m221 -6 c22 -26 25 -46 7 -34 -7 4 -35 9 -63 11 -57 4 -87 22 -37 22
22 0 30 4 26 13 -9 23 46 14 67 -12z m5183 13 c3 -8 2 -12 -4 -9 -6 3 -10 10
-10 16 0 14 7 11 14 -7z m-639 -12 c-3 -3 -11 0 -18 7 -9 10 -8 11 6 5 10 -3
15 -9 12 -12z m829 3 c14 -14 14 -19 -1 -50 -9 -19 -20 -32 -24 -30 -4 3 -5
-4 -2 -15 4 -17 0 -20 -24 -20 -16 0 -38 7 -49 16 -18 15 -18 15 2 5 19 -9 22
-7 26 14 3 14 -1 30 -8 36 -8 6 -14 16 -14 21 0 5 7 2 16 -6 21 -22 27 -20 19
5 -12 35 31 52 59 24z m66 5 c0 -5 -7 -10 -16 -10 -8 0 -12 5 -9 10 3 6 10 10
16 10 5 0 9 -4 9 -10z m-2595 -10 c3 -5 -1 -10 -10 -10 -9 0 -13 5 -10 10 3 6
8 10 10 10 2 0 7 -4 10 -10z m112 -5 c0 -8 -6 -15 -14 -15 -14 0 -17 12 -6 23
11 11 20 8 20 -8z m48 -14 c-6 -5 -25 10 -25 20 0 5 6 4 14 -3 8 -7 12 -15 11
-17z m2515 19 c0 -5 -4 -10 -9 -10 -6 0 -13 5 -16 10 -3 6 1 10 9 10 9 0 16
-4 16 -10z m-6012 -25 c-3 -3 -9 2 -12 12 -6 14 -5 15 5 6 7 -7 10 -15 7 -18z
m3379 19 c-3 -3 -12 -4 -19 -1 -8 3 -5 6 6 6 11 1 17 -2 13 -5z m643 -9 c0 -8
5 -15 11 -15 6 0 2 -15 -10 -35 -11 -19 -16 -35 -11 -35 6 0 10 -4 10 -9 0
-13 -43 -22 -54 -11 -6 6 -16 4 -28 -7 -17 -15 -18 -15 -18 11 0 17 11 37 33
56 25 24 29 32 18 39 -11 7 -10 10 5 14 35 9 44 7 44 -8z m1320 4 c0 -11 -28
-11 -55 0 -15 7 -11 9 18 9 20 0 37 -4 37 -9z m-93 -5 c-3 -3 -12 -4 -19 -1
-8 3 -5 6 6 6 11 1 17 -2 13 -5z m803 -20 c0 -14 -12 -19 -23 -8 -9 9 4 35 14
28 5 -3 9 -12 9 -20z m-1754 2 c15 4 16 3 4 -4 -19 -12 -121 -34 -128 -27 -3
3 3 5 14 5 16 0 17 2 4 10 -12 8 -10 10 10 9 46 -4 62 0 54 14 -6 9 -4 9 8 -1
8 -7 24 -10 34 -6z m151 8 c-3 -3 -12 -4 -19 -1 -8 3 -5 6 6 6 11 1 17 -2 13
-5z m463 -7 c0 -6 3 -8 6 -4 8 8 44 -25 44 -40 0 -15 -2 -15 -24 -7 -9 3 -13
10 -10 15 3 5 0 9 -5 9 -6 0 -11 -6 -11 -12 -1 -7 -7 -2 -15 12 -8 14 -14 19
-15 12 0 -7 -5 -10 -10 -7 -6 4 -8 10 -5 15 3 4 -1 10 -7 13 -7 3 2 5 20 4 17
0 32 -5 32 -10z m227 7 c-3 -3 -12 -4 -19 -1 -8 3 -5 6 6 6 11 1 17 -2 13 -5z
m618 -12 c-3 -3 -11 0 -18 7 -9 10 -8 11 6 5 10 -3 15 -9 12 -12z m155 9 c0
-5 -7 -11 -14 -14 -10 -4 -13 -1 -9 9 6 15 23 19 23 5z m-5780 -41 c0 -11 -7
-20 -15 -20 -18 0 -19 -9 -5 -46 11 -27 -1 -56 -16 -41 -5 5 -9 124 -5 145 1
1 10 -2 21 -8 11 -6 20 -20 20 -30z m4870 30 c0 -5 -7 -7 -15 -4 -8 4 -15 8
-15 10 0 2 7 4 15 4 8 0 15 -4 15 -10z m82 -2 c-14 -7 -26 -8 -32 -2 -6 6 2
10 23 11 30 2 31 1 9 -9z m318 2 c0 -5 -4 -10 -10 -10 -5 0 -10 5 -10 10 0 6
5 10 10 10 6 0 10 -4 10 -10z m110 2 c-8 -3 -18 -9 -21 -14 -3 -5 -11 -3 -17
5 -10 11 -6 14 21 14 17 1 25 -2 17 -5z m95 -52 c7 -8 15 -24 19 -36 3 -11 22
-27 41 -34 37 -15 45 -34 19 -44 -24 -9 -44 -7 -44 5 0 5 5 7 12 3 6 -4 8 -3
5 4 -4 5 -15 8 -25 6 -24 -5 -68 35 -76 70 -7 27 -6 28 21 23 15 -4 22 -4 16
-1 -7 3 -12 20 -12 37 2 28 2 29 6 7 3 -14 11 -32 18 -40z m-1777 33 c-4 -23
-58 -31 -58 -9 0 13 11 18 53 25 5 0 7 -7 5 -16z m302 7 c0 -5 -19 -9 -42 -9
l-43 2 40 7 c22 4 41 8 43 9 1 0 2 -3 2 -9z m720 0 c0 -5 -10 -10 -22 -10 -19
0 -20 2 -8 10 19 13 30 13 30 0z m-4160 -21 c0 -18 -5 -21 -35 -17 -31 4 -33
2 -20 -12 26 -29 16 -35 -12 -8 -16 14 -39 32 -53 41 -24 17 -23 17 48 17 67
0 72 -2 72 -21z m5300 -14 c0 -8 -8 -11 -20 -8 -11 3 -20 9 -20 14 0 5 -4 9
-10 9 -5 0 -10 -9 -10 -21 0 -18 5 -20 38 -18 20 1 43 1 50 0 21 -2 13 -31
-13 -43 -21 -9 -28 -8 -38 4 -16 20 -64 29 -96 16 -25 -9 -25 -9 -7 11 15 16
16 24 7 34 -9 12 -7 13 14 9 18 -3 25 0 25 11 0 12 7 13 40 5 22 -6 40 -16 40
-23z m-755 15 c-3 -5 4 -19 15 -30 11 -11 18 -25 15 -30 -4 -6 1 -7 11 -3 12
4 15 3 10 -5 -10 -17 -39 -15 -33 2 10 24 -17 38 -31 16 -9 -14 -8 -20 1 -23
8 -4 8 -6 1 -6 -16 -1 -46 47 -38 60 3 6 16 14 28 19 28 12 28 12 21 0z m542
4 c-3 -3 -12 -4 -19 -1 -8 3 -5 6 6 6 11 1 17 -2 13 -5z m-5404 -19 c-3 -9 -8
-14 -10 -11 -3 3 -2 9 2 15 9 16 15 13 8 -4z m-1375 -7 c-2 -7 3 -12 10 -10 7
1 12 -8 12 -20 0 -19 2 -20 10 -8 8 12 10 9 10 -12 0 -16 5 -28 11 -28 5 0 7
-5 4 -10 -4 -6 -22 9 -41 34 -35 46 -42 66 -24 66 6 0 9 -6 8 -12z m737 -8
c-17 -19 -17 -20 1 -20 18 0 18 -1 -1 -13 -29 -19 -106 -47 -99 -36 5 9 105
87 113 88 2 1 -4 -8 -14 -19z m5305 -6 c0 -8 7 -14 16 -14 9 0 14 -5 12 -12
-8 -23 -26 -19 -36 9 -6 15 -11 22 -11 15 -1 -7 -5 -10 -11 -7 -6 4 -5 11 3
19 14 16 27 11 27 -10z m-104 -4 c8 0 14 -7 14 -17 0 -14 -2 -14 -20 2 -11 10
-20 23 -19 29 0 6 3 6 6 -1 2 -7 11 -13 19 -13z m581 14 c-3 -3 -12 -4 -19 -1
-8 3 -5 6 6 6 11 1 17 -2 13 -5z m-6539 -40 c13 -20 19 -33 13 -29 -6 3 -11 1
-11 -5 0 -6 -6 -18 -14 -25 -12 -12 -15 -8 -25 31 -18 71 0 85 37 28z m4132 6
c0 -5 -2 -10 -4 -10 -3 0 -8 5 -11 10 -3 6 -1 10 4 10 6 0 11 -4 11 -10z
m2054 -5 c3 -8 1 -15 -4 -15 -6 0 -10 7 -10 15 0 8 2 15 4 15 2 0 6 -7 10 -15z
m191 -12 c16 -15 15 -17 -12 -28 -31 -13 -53 -8 -32 7 10 7 4 8 -16 3 -29 -6
-29 -6 -11 14 23 25 49 27 71 4z m89 1 c4 -10 1 -14 -6 -12 -15 5 -23 28 -10
28 5 0 13 -7 16 -16z m316 4 c0 -4 -17 -8 -37 -7 -33 1 -35 2 -13 8 33 10 50
9 50 -1z m53 5 c-7 -2 -19 -2 -25 0 -7 3 -2 5 12 5 14 0 19 -2 13 -5z m-4833
-7 c0 -3 -4 -8 -10 -11 -5 -3 -10 -1 -10 4 0 6 5 11 10 11 6 0 10 -2 10 -4z
m3039 -10 c-2 -2 -15 -7 -29 -10 l-25 -7 25 15 c21 12 42 14 29 2z m1075 -2
c4 -9 4 -19 2 -21 -8 -8 -26 8 -26 23 0 19 16 18 24 -2z m86 -14 c0 -5 -2 -10
-4 -10 -3 0 -8 5 -11 10 -3 6 -1 10 4 10 6 0 11 -4 11 -10z m-5485 -19 c-4 -3
-12 -6 -17 -6 -6 0 -13 -6 -16 -14 -3 -8 0 -11 7 -7 7 5 8 1 4 -10 -4 -11 -8
-13 -11 -6 -6 19 -22 14 -32 -10 -5 -13 -9 -16 -9 -8 -1 23 50 79 66 73 8 -3
11 -8 8 -12z m5315 9 c11 -7 11 -10 2 -10 -7 0 -10 -5 -7 -10 4 -6 -6 -23 -21
-40 -26 -27 -44 -31 -44 -9 0 6 4 8 9 4 16 -9 24 15 11 30 -10 12 -10 15 0 15
10 0 10 3 0 15 -10 13 -9 15 11 15 13 0 31 -5 39 -10z m575 -10 c-3 -4 4 -10
15 -13 20 -5 28 -27 10 -27 -5 0 -7 -7 -4 -15 4 -9 -1 -18 -10 -21 -21 -8 -35
4 -17 15 16 10 16 18 -4 37 -20 20 -20 45 0 38 8 -4 13 -10 10 -14z m-2505 6
c0 -11 -19 -15 -25 -6 -3 5 1 10 9 10 9 0 16 -2 16 -4z m940 -6 c0 -5 -6 -10
-12 -10 -7 0 -24 -3 -38 -5 -22 -5 -21 -3 5 9 36 18 45 19 45 6z m1114 -11
c-3 -5 -10 -7 -15 -3 -5 3 -7 10 -3 15 3 5 10 7 15 3 5 -3 7 -10 3 -15z m96
17 c0 -3 -4 -8 -10 -11 -5 -3 -10 -1 -10 4 0 6 5 11 10 11 6 0 10 -2 10 -4z
m235 -6 c3 -5 2 -10 -4 -10 -5 0 -13 5 -16 10 -3 6 -2 10 4 10 5 0 13 -4 16
-10z m477 -7 c10 -9 18 -22 18 -30 0 -22 -25 -15 -55 17 l-29 30 24 0 c13 0
32 -7 42 -17z m-1227 -3 c3 -6 -1 -7 -9 -4 -18 7 -21 14 -7 14 6 0 13 -4 16
-10z m559 -6 c3 -8 2 -12 -4 -9 -6 3 -10 10 -10 16 0 14 7 11 14 -7z m-638
-31 c-10 -10 -19 5 -10 18 6 11 8 11 12 0 2 -7 1 -15 -2 -18z m-4783 2 c-3 -9
-8 -14 -10 -11 -3 3 -2 9 2 15 9 16 15 13 8 -4z m4824 9 c-3 -3 -12 -4 -19 -1
-8 3 -5 6 6 6 11 1 17 -2 13 -5z m-657 -17 c0 -8 -9 -22 -20 -32 -11 -10 -20
-13 -20 -7 0 7 -4 12 -10 12 -5 0 -10 -7 -10 -15 0 -9 -9 -15 -22 -15 -22 1
-23 1 -4 15 15 11 16 15 5 16 -8 0 -2 5 14 11 15 5 27 14 27 19 0 5 9 9 20 9
11 0 20 -6 20 -13z m1070 -17 c0 -5 -7 -10 -16 -10 -8 0 -12 5 -9 10 3 6 10
10 16 10 5 0 9 -4 9 -10z m946 -4 c10 -8 16 -18 12 -22 -9 -8 -68 15 -68 27 0
14 34 11 56 -5z m-1296 -6 c0 -5 -2 -10 -4 -10 -3 0 -8 5 -11 10 -3 6 -1 10 4
10 6 0 11 -4 11 -10z m-4884 -37 c-13 -24 -15 -25 -16 -7 0 11 5 25 12 32 19
19 21 6 4 -25z m5164 33 c0 -2 -11 -6 -25 -8 -14 -3 -25 -1 -25 3 0 5 11 9 25
9 14 0 25 -2 25 -4z m490 -11 c16 -19 0 -19 -26 0 -16 12 -16 14 -3 15 9 0 22
-7 29 -15z m-880 -9 c0 -8 -4 -17 -9 -21 -12 -7 -24 12 -16 25 9 15 25 12 25
-4z m-1440 -6 c0 -5 -4 -10 -10 -10 -5 0 -10 5 -10 10 0 6 5 10 10 10 6 0 10
-4 10 -10z m1570 0 c12 -8 9 -10 -12 -10 -16 0 -28 5 -28 10 0 13 20 13 40 0z
m210 -10 c9 -17 8 -20 -14 -20 -14 0 -28 5 -31 10 -3 6 -1 10 5 10 6 0 8 5 5
10 -3 6 1 10 9 10 8 0 20 -9 26 -20z m73 0 c23 -9 36 -19 33 -27 -3 -7 -2 -12
2 -12 24 4 52 -3 52 -12 0 -6 -9 -8 -20 -4 -12 4 -20 2 -20 -5 0 -6 -4 -8 -10
-5 -5 3 -10 2 -10 -4 0 -6 -7 -8 -15 -5 -8 4 -13 9 -11 13 2 3 -2 12 -10 19
-8 7 -14 10 -14 6 0 -3 -7 -1 -15 6 -15 12 -22 55 -7 48 4 -2 24 -10 45 -18z
m535 2 c6 -18 -15 -14 -22 4 -4 10 -1 14 6 12 6 -2 14 -10 16 -16z m-5937 -9
c13 -16 12 -17 -3 -4 -17 13 -22 21 -14 21 2 0 10 -8 17 -17z m3399 -4 c0 -6
-4 -7 -10 -4 -5 3 -10 11 -10 16 0 6 5 7 10 4 6 -3 10 -11 10 -16z m2220 10
c0 -5 -4 -8 -9 -4 -5 3 -12 2 -15 -3 -9 -15 28 -10 46 5 14 13 18 12 27 -5 14
-27 4 -52 -17 -45 -14 4 -14 3 -3 -5 8 -6 20 -8 27 -5 8 3 11 -5 10 -21 0 -14
-7 -26 -13 -26 -7 0 -13 -5 -13 -11 0 -5 4 -8 9 -4 5 3 13 0 17 -6 11 -19 -48
-1 -63 19 -17 23 -16 33 2 26 8 -4 15 -10 15 -15 0 -4 7 -6 16 -2 20 7 3 25
-28 30 -24 4 -40 22 -32 35 3 4 0 8 -5 8 -15 0 -14 27 2 33 20 9 27 8 27 -4z
m438 -1 c21 -21 13 -28 -28 -28 -45 0 -52 11 -17 28 29 14 31 14 45 0z m-2888
-7 c0 -6 -4 -13 -10 -16 -5 -3 -10 1 -10 9 0 9 5 16 10 16 6 0 10 -4 10 -9z
m3026 -5 c19 -19 18 -26 -5 -26 -21 0 -45 23 -34 33 10 11 23 8 39 -7z m-5517
-92 c-5 -6 -6 -14 -2 -17 3 -4 2 -7 -3 -7 -10 1 -49 50 -39 50 4 0 14 -4 24
-10 17 -8 18 -5 15 38 l-3 47 8 -45 c5 -25 5 -50 0 -56z m2547 39 c-4 -4 -16
3 -26 17 -29 37 -24 49 7 18 15 -15 23 -31 19 -35z m1639 46 c10 -15 13 -59 5
-59 -3 0 -13 11 -20 25 -7 14 -17 25 -22 25 -4 0 -8 5 -8 10 0 13 37 13 45 -1z
m630 1 c3 -5 -3 -10 -15 -10 -12 0 -18 5 -15 10 3 6 10 10 15 10 5 0 12 -4 15
-10z m-2435 -4 c0 -3 -4 -8 -10 -11 -5 -3 -10 -1 -10 4 0 6 5 11 10 11 6 0 10
-2 10 -4z m2815 -16 c3 -5 1 -10 -4 -10 -6 0 -11 5 -11 10 0 6 2 10 4 10 3 0
8 -4 11 -10z m-1055 -9 c0 -6 -4 -13 -10 -16 -5 -3 -10 1 -10 9 0 9 5 16 10
16 6 0 10 -4 10 -9z m-1815 -11 c3 -6 -1 -7 -9 -4 -18 7 -21 14 -7 14 6 0 13
-4 16 -10z m3330 0 c3 -5 -3 -10 -15 -10 -12 0 -18 5 -15 10 3 6 10 10 15 10
5 0 12 -4 15 -10z m-5609 -27 c-4 -10 -4 -14 0 -10 5 5 44 -28 44 -38 0 -9
-48 3 -56 14 -13 16 -7 51 8 51 6 0 7 -8 4 -17z m5154 7 c0 -5 -11 -10 -25
-10 -14 0 -25 5 -25 10 0 6 11 10 25 10 14 0 25 -4 25 -10z m-1511 -31 c-29
-18 -44 -9 -19 11 15 11 26 15 29 8 2 -6 -3 -14 -10 -19z m1250 -7 c6 -11 6
-24 0 -33 -7 -11 -9 -10 -10 6 0 11 -3 14 -6 8 -8 -21 -18 -15 -19 12 -2 29
21 34 35 7z m-5003 -13 c3 -5 -1 -9 -9 -9 -8 0 -17 -6 -20 -14 -4 -11 8 -13
59 -10 41 3 64 0 64 -7 0 -5 -6 -7 -12 -3 -8 5 -8 1 2 -12 22 -30 24 -30 16
-9 -5 16 -3 16 13 -4 10 -14 17 -30 14 -37 -2 -6 3 -14 11 -17 9 -4 16 -11 16
-17 0 -6 -5 -8 -11 -5 -6 4 -5 -2 2 -13 16 -25 5 -40 -15 -23 -8 7 -28 12 -43
11 -43 -3 -46 -1 -33 15 11 13 10 14 -2 10 -10 -4 -26 11 -49 44 -19 28 -40
49 -46 46 -9 -3 -13 8 -13 34 0 35 2 38 25 33 14 -2 28 -8 31 -13z m2669 11
c3 -5 -3 -10 -14 -10 -11 0 -23 5 -26 10 -3 6 3 10 14 10 11 0 23 -4 26 -10z
m1981 -8 c-3 -2 -1 -13 5 -23 7 -15 6 -19 -6 -19 -8 0 -15 7 -15 15 0 8 -9 15
-20 15 -22 0 -27 16 -7 23 15 5 50 -4 43 -11z m144 -2 c4 -7 13 -9 20 -5 8 5
11 4 7 -2 -12 -19 -56 -21 -72 -3 -8 9 -15 19 -15 22 0 11 52 1 60 -12z
m-1041 -31 c-29 -18 -44 -9 -19 11 15 11 26 15 29 8 2 -6 -3 -14 -10 -19z
m311 21 c0 -5 -2 -10 -4 -10 -3 0 -8 5 -11 10 -3 6 -1 10 4 10 6 0 11 -4 11
-10z m-3918 -17 c19 -17 25 -53 9 -53 -12 0 -41 40 -41 57 0 17 10 16 32 -4z
m4731 -10 c3 -16 0 -31 -6 -35 -19 -12 -30 -9 -19 5 7 8 7 18 1 27 -8 13 -10
13 -18 0 -6 -8 -14 -11 -18 -6 -9 8 24 36 43 36 6 0 14 -12 17 -27z m878 6
c11 -11 18 -23 15 -27 -4 -3 -19 6 -34 21 -14 15 -21 27 -14 27 6 0 21 -9 33
-21z m-1151 -14 c-7 -9 -15 -13 -17 -11 -7 7 7 26 19 26 6 0 6 -6 -2 -15z
m-4631 -44 c31 -30 51 -58 51 -72 0 -17 -3 -19 -14 -10 -10 8 -16 9 -21 1 -8
-12 3 -32 15 -25 12 8 21 -24 14 -52 -6 -24 -5 -25 26 -21 30 5 32 4 26 -23
-5 -24 9 -86 32 -149 7 -20 9 -28 11 -40 1 -12 95 -60 118 -60 15 0 15 2 -3
14 -18 14 -18 15 10 45 17 17 33 31 38 31 14 0 9 -108 -5 -122 -8 -7 -12 -20
-10 -29 4 -14 -8 -17 -93 -18 -64 -1 -102 3 -112 11 -13 10 -14 10 -8 1 5 -9
0 -13 -13 -13 -14 0 -21 6 -21 18 0 10 -7 27 -15 38 -13 17 -14 16 -8 -19 l6
-37 -93 0 -92 0 6 33 c5 28 3 33 -14 33 -21 0 -26 -11 -10 -21 6 -3 10 -11 10
-17 0 -7 -5 -6 -14 1 -12 10 -13 8 -9 -8 5 -19 1 -21 -41 -21 -25 0 -46 3 -46
8 0 4 9 22 20 40 20 32 20 32 0 32 -11 0 -20 5 -20 10 0 6 3 9 8 8 24 -5 41
18 47 65 4 29 11 62 16 75 7 17 6 21 -3 16 -7 -5 -9 -2 -5 8 3 9 -1 24 -9 35
-13 16 -14 11 -8 -52 5 -57 4 -68 -7 -58 -7 7 -16 45 -19 85 -4 40 -8 57 -9
37 -1 -28 -5 -36 -18 -35 -10 0 -18 -5 -19 -11 -4 -34 -7 -35 -13 -3 -8 42 -4
60 15 60 8 0 14 4 14 9 0 6 -15 4 -33 -4 -43 -18 -68 -5 -49 25 15 24 16 33 2
25 -23 -14 -8 4 16 20 22 14 30 15 50 4 20 -10 27 -10 43 5 11 10 23 31 26 47
8 34 22 46 38 30 8 -8 8 -23 -1 -55 -12 -47 1 -106 24 -106 21 0 8 126 -17
166 -24 40 -22 51 7 29 10 -8 38 -24 62 -35 24 -11 61 -34 83 -51 28 -22 39
-26 39 -16 0 17 -49 56 -77 62 -10 2 -34 11 -53 20 l-35 16 40 -5 40 -5 -30
14 c-16 8 -36 14 -42 15 -7 0 -13 5 -13 10 0 15 72 11 94 -5 10 -7 16 -18 13
-22 -3 -5 4 -9 15 -9 18 0 16 4 -13 28 -18 15 -40 28 -49 28 -13 0 -13 1 0 10
31 20 59 10 109 -39z m2341 46 c0 -2 -10 -12 -21 -23 -22 -19 -22 -19 -10 4
10 18 31 31 31 19z m1560 -6 c0 -11 -31 -24 -39 -16 -3 3 1 10 9 15 19 12 30
12 30 1z m695 -2 c-4 -5 -21 -9 -38 -8 -24 0 -27 2 -14 8 28 11 58 11 52 0z
m-4346 -66 c1 -8 -8 -7 -29 5 -29 17 -29 17 -7 29 18 10 23 9 29 -5 4 -9 7
-22 7 -29z m4406 27 c19 -8 19 -9 -2 -9 -12 -1 -25 4 -28 9 -7 12 2 12 30 0z
m-1780 -41 c10 -15 -1 -22 -24 -14 -12 3 -19 11 -16 16 8 12 32 11 40 -2z
m1925 -9 c0 -5 -4 -10 -10 -10 -5 0 -10 5 -10 10 0 6 5 10 10 10 6 0 10 -4 10
-10z m-2355 -10 c3 -5 1 -10 -4 -10 -6 0 -11 5 -11 10 0 6 2 10 4 10 3 0 8 -4
11 -10z m2109 -6 c4 -10 1 -14 -6 -12 -15 5 -23 28 -10 28 5 0 13 -7 16 -16z
m-2086 -18 c-2 -17 -8 -24 -20 -23 -10 1 -18 7 -18 15 0 7 5 10 10 7 6 -3 13
1 16 9 9 23 14 19 12 -8z m2280 12 c-2 -6 -10 -14 -16 -16 -7 -2 -10 2 -6 12
7 18 28 22 22 4z m-4428 -45 c0 -22 -8 -14 -19 20 -10 29 -9 30 4 13 8 -11 15
-26 15 -33z m3470 37 c0 -5 -10 -10 -22 -9 -22 0 -22 1 -3 9 11 5 21 9 23 9 1
1 2 -3 2 -9z m605 -13 c0 -9 -4 -17 -10 -16 -5 0 -13 -10 -16 -23 -6 -23 -6
-22 -14 4 -4 16 -4 35 -1 44 8 20 41 14 41 -9z m1345 3 c0 -5 -2 -10 -4 -10
-3 0 -8 5 -11 10 -3 6 -1 10 4 10 6 0 11 -4 11 -10z m-5635 -20 c3 -5 -1 -10
-9 -10 -8 0 -18 5 -21 10 -3 6 1 10 9 10 8 0 18 -4 21 -10z m2459 -15 c-4 -8
-10 -12 -15 -9 -11 6 -2 24 11 24 5 0 7 -7 4 -15z m-160 -4 c3 -4 -6 -13 -19
-19 -22 -10 -25 -9 -25 8 0 20 33 29 44 11z m656 -11 c0 -5 -9 -10 -20 -10
-11 0 -20 5 -20 10 0 6 9 10 20 10 11 0 20 -4 20 -10z m-2870 -66 c0 -16 -16
-19 -25 -4 -8 13 4 32 16 25 5 -4 9 -13 9 -21z m2320 5 c0 -5 -4 -8 -9 -5 -13
8 -34 -21 -25 -35 4 -8 3 -9 -4 -5 -7 4 -12 2 -12 -3 0 -6 -4 -11 -8 -11 -5 0
-7 14 -4 31 3 20 9 28 18 25 7 -3 16 -1 19 4 8 13 25 13 25 -1z m1690 1 c0 -5
-7 -10 -15 -10 -8 0 -15 5 -15 10 0 6 7 10 15 10 8 0 15 -4 15 -10z m-5209
-108 c76 -146 109 -177 109 -103 0 24 8 48 21 65 22 28 107 82 115 73 3 -3 -3
-8 -14 -11 -11 -4 -22 -16 -25 -27 -3 -11 -19 -25 -36 -32 -17 -6 -32 -16 -32
-22 -1 -5 -2 -14 -4 -20 -1 -5 -3 -27 -3 -47 -4 -81 -64 -33 -139 109 -36 69
-64 137 -51 123 3 -3 29 -51 59 -108z m5109 41 c0 -16 -27 -5 -34 14 -3 8 -3
19 0 25 7 10 33 -20 34 -39z m-4746 2 c3 -8 1 -15 -4 -15 -6 0 -10 7 -10 15 0
8 2 15 4 15 2 0 6 -7 10 -15z m-219 -25 c-9 -16 -18 -30 -21 -30 -2 0 2 14 11
30 9 17 18 30 21 30 2 0 -2 -13 -11 -30z m185 1 c-6 -12 -8 -27 -4 -34 5 -9 4
-9 -5 -1 -9 8 -9 18 -1 39 6 15 13 25 16 22 3 -3 1 -15 -6 -26z m3140 16 c0
-2 -11 -14 -25 -27 -27 -25 -35 -12 -9 14 14 14 34 22 34 13z m35 -7 c3 -5 1
-10 -4 -10 -6 0 -11 5 -11 10 0 6 2 10 4 10 3 0 8 -4 11 -10z m295 -12 c0 -18
-2 -20 -9 -8 -6 8 -7 18 -5 22 9 14 14 9 14 -14z m-3500 -4 c-8 -8 -23 -20
-34 -25 -13 -7 -9 -1 9 15 34 29 43 33 25 10z m3709 -6 l46 -1 -45 -7 c-35 -5
-38 -7 -15 -9 17 -1 37 -6 45 -11 10 -7 -12 -9 -75 -7 -85 4 -90 6 -93 27 -4
22 -2 23 44 16 26 -3 68 -7 93 -8z m-3592 -64 c28 -52 37 -60 70 -66 33 -6 41
-3 61 18 12 14 22 32 22 40 0 8 5 14 11 14 5 0 8 -4 5 -9 -4 -5 -2 -11 4 -13
6 -2 3 -18 -8 -41 l-17 -37 -61 6 c-60 6 -61 5 -68 -20 -9 -35 -22 -33 -35 5
-15 44 -14 62 4 55 13 -5 13 -1 -1 32 -8 20 -22 48 -31 61 -11 17 -11 22 -2
19 7 -2 27 -31 46 -64z m4313 36 c-8 -5 -17 -7 -19 -4 -3 3 1 9 9 14 8 5 17 7
19 4 3 -3 -1 -9 -9 -14z m1368 -25 c15 -33 15 -35 -3 -35 -13 0 -35 36 -35 56
0 15 29 -1 38 -21z m-5458 -5 c13 -8 13 -10 0 -10 -10 0 -8 -6 8 -22 22 -22
24 -22 36 -5 14 18 86 25 86 7 0 -16 -73 -42 -99 -35 -25 6 -60 42 -61 63 0
14 10 15 30 2z m3308 3 c-16 -2 -40 -2 -55 0 -16 2 -3 4 27 4 30 0 43 -2 28
-4z m-3779 -38 c-21 -35 -29 -42 -29 -26 0 9 39 61 45 61 3 0 -5 -16 -16 -35z
m5096 -6 c11 -17 -1 -21 -15 -4 -8 9 -8 15 -2 15 6 0 14 -5 17 -11z m-5395
-85 c0 -61 -16 -56 -19 7 -1 34 2 49 8 44 6 -3 11 -26 11 -51z m6710 29 c0
-10 -6 -12 -22 -7 -31 9 -35 14 -19 24 18 11 41 2 41 -17z m-6790 7 c0 -5 -8
-25 -17 -45 -16 -33 -20 -35 -64 -35 -42 0 -47 2 -42 20 6 22 39 50 60 50 8 0
14 -14 14 -32 l2 -33 4 30 c2 17 6 36 8 43 5 14 35 17 35 2z m910 0 c0 -5 -7
-10 -16 -10 -8 0 -12 5 -9 10 3 6 10 10 16 10 5 0 9 -4 9 -10z m-730 -23 c0
-2 -12 -14 -27 -28 l-28 -24 24 28 c23 25 31 32 31 24z m530 -37 c0 -13 -7
-20 -20 -20 -18 0 -19 3 -10 20 6 11 15 20 20 20 6 0 10 -9 10 -20z m924 14
c29 -4 46 -12 46 -20 0 -11 -19 -14 -80 -14 -73 0 -80 2 -80 20 0 22 27 25
114 14z m-1324 -24 c0 -5 -5 -10 -11 -10 -5 0 -7 5 -4 10 3 6 8 10 11 10 2 0
4 -4 4 -10z m3847 -6 c-3 -3 -12 -4 -19 -1 -8 3 -5 6 6 6 11 1 17 -2 13 -5z"/>
<path d="M5567 3291 c-16 -6 -16 -9 -5 -18 7 -6 21 -7 31 -4 16 6 16 9 5 18
-7 6 -21 7 -31 4z"/>
<path d="M5524 2915 c-16 -12 -17 -14 -3 -15 9 0 19 7 23 15 7 19 5 19 -20 0z"/>
<path d="M5488 2904 c-5 -4 -8 -16 -8 -26 0 -10 -6 -18 -12 -18 -10 0 -10 -2
0 -9 8 -4 16 -26 19 -49 5 -34 2 -41 -16 -47 -32 -10 -25 -24 9 -19 27 5 30 3
30 -22 0 -27 0 -27 19 -8 13 13 15 23 9 31 -6 7 -8 22 -5 32 3 12 -1 22 -9 25
-8 3 -15 0 -16 -7 -1 -7 -4 19 -7 56 -3 38 -9 65 -13 61z"/>
<path d="M5450 2810 c0 -5 5 -10 11 -10 5 0 7 5 4 10 -3 6 -8 10 -11 10 -2 0
-4 -4 -4 -10z"/>
<path d="M5745 2570 c-3 -5 -1 -10 4 -10 6 0 11 5 11 10 0 6 -2 10 -4 10 -3 0
-8 -4 -11 -10z"/>
<path d="M5344 2298 c4 -29 13 -78 21 -108 l14 -55 -6 60 c-3 33 -5 67 -5 75
2 33 -10 80 -20 80 -7 0 -8 -18 -4 -52z"/>
<path d="M5520 2341 c0 -5 -14 -14 -31 -21 -17 -8 -26 -16 -19 -20 5 -3 15
-35 21 -70 7 -38 15 -57 19 -49 9 17 23 169 15 169 -3 0 -5 -4 -5 -9z"/>
<path d="M5430 2310 c0 -5 5 -10 11 -10 5 0 7 5 4 10 -3 6 -8 10 -11 10 -2 0
-4 -4 -4 -10z"/>
<path d="M5240 2290 c0 -11 7 -20 15 -20 8 0 15 6 15 14 0 8 -7 16 -15 20 -10
4 -15 -1 -15 -14z"/>
<path d="M5540 2275 c0 -9 6 -12 15 -9 8 4 12 10 9 15 -8 14 -24 10 -24 -6z"/>
<path d="M5387 2220 c3 -36 7 -78 8 -93 2 -16 6 -31 10 -35 9 -8 -3 109 -15
158 -7 26 -8 19 -3 -30z"/>
<path d="M5565 2250 c-3 -6 1 -7 9 -4 18 7 21 14 7 14 -6 0 -13 -4 -16 -10z"/>
<path d="M5527 2191 c-6 -36 -4 -46 10 -57 17 -13 17 -14 0 -8 -14 5 -16 2
-14 -17 2 -13 7 -23 10 -21 4 1 14 5 22 8 8 3 12 10 9 15 -3 5 2 6 10 3 9 -3
16 -1 16 5 0 6 -7 11 -15 11 -9 0 -12 6 -8 15 3 9 -1 21 -10 28 -9 7 -17 23
-19 37 -3 19 -5 14 -11 -19z"/>
<path d="M5800 2936 c0 -9 30 -14 35 -6 4 6 -3 10 -14 10 -12 0 -21 -2 -21 -4z"/>
<path d="M2221 2864 c0 -11 3 -14 6 -6 3 7 2 16 -1 19 -3 4 -6 -2 -5 -13z"/>
<path d="M2194 1577 c-2 -7 -3 -80 -2 -162 l3 -150 5 163 c3 89 4 162 2 162
-1 0 -5 -6 -8 -13z"/>
<path d="M2744 1534 c3 -26 7 -56 8 -68 1 -12 4 4 7 34 7 61 4 80 -11 80 -7 0
-8 -17 -4 -46z"/>
<path d="M3671 1405 c1 -19 18 -51 18 -35 0 8 -4 22 -9 30 -5 8 -9 11 -9 5z"/>
<path d="M3720 1389 c0 -5 5 -7 10 -4 6 3 10 8 10 11 0 2 -4 4 -10 4 -5 0 -10
-5 -10 -11z"/>
<path d="M4015 1350 c-4 -6 6 -10 22 -10 22 0 25 2 13 10 -19 12 -27 12 -35 0z"/>
<path d="M3968 1343 c7 -3 16 -2 19 1 4 3 -2 6 -13 5 -11 0 -14 -3 -6 -6z"/>
<path d="M2753 1305 c0 -22 2 -30 4 -17 2 12 2 30 0 40 -3 9 -5 -1 -4 -23z"/>
<path d="M2503 1280 c0 -25 2 -35 4 -22 2 12 2 32 0 45 -2 12 -4 2 -4 -23z"/>
<path d="M4070 1258 c0 -20 -3 -51 -6 -69 -5 -25 -4 -31 5 -23 12 11 18 110 7
121 -3 3 -6 -10 -6 -29z"/>
<path d="M2826 1223 c-6 -14 -5 -15 5 -6 7 7 10 15 7 18 -3 3 -9 -2 -12 -12z"/>
<path d="M4560 1130 c0 -5 5 -10 10 -10 6 0 10 5 10 10 0 6 -4 10 -10 10 -5 0
-10 -4 -10 -10z"/>
<path d="M1780 1031 c0 -6 4 -13 10 -16 6 -3 7 1 4 9 -7 18 -14 21 -14 7z"/>
<path d="M1890 990 c0 -5 6 -13 13 -17 7 -4 26 -25 43 -45 16 -21 33 -38 37
-38 9 0 -12 37 -48 84 -19 26 -45 35 -45 16z"/>
<path d="M1840 946 c0 -2 18 -15 39 -29 21 -14 45 -40 52 -56 16 -36 33 -42
24 -8 -8 28 -79 97 -100 97 -8 0 -15 -2 -15 -4z"/>
<path d="M2498 873 c12 -2 32 -2 45 0 12 2 2 4 -23 4 -25 0 -35 -2 -22 -4z"/>
<path d="M2600 869 c0 -4 18 -9 40 -11 22 -2 40 -1 40 3 0 4 -18 9 -40 11 -22
2 -40 1 -40 -3z"/>
<path d="M1970 849 c0 -6 -13 -28 -29 -48 l-29 -36 34 0 c29 0 34 4 35 25 1
14 3 35 4 48 1 12 -2 22 -6 22 -5 0 -9 -5 -9 -11z"/>
<path d="M3765 850 c-3 -6 1 -7 9 -4 18 7 21 14 7 14 -6 0 -13 -4 -16 -10z"/>
<path d="M3681 719 c-1 -127 -1 -127 -26 -133 -14 -4 -25 -11 -25 -16 0 -6 -4
-10 -10 -10 -6 0 -10 34 -10 81 l0 81 -672 -7 c-370 -4 -708 -11 -751 -14 -43
-4 -81 -3 -84 2 -3 5 -22 7 -44 6 -48 -4 -61 7 -18 16 23 5 28 10 18 16 -17
11 -69 12 -69 1 0 -22 35 -52 68 -57 20 -4 45 -9 56 -12 13 -4 16 -1 11 8 -4
8 12 -5 37 -29 25 -24 49 -42 54 -41 5 1 16 1 24 0 12 -1 11 -5 -4 -16 -25
-19 -36 -18 214 -19 l205 -1 6 -65 6 -65 1 62 c2 73 -7 69 167 65 l120 -3 0
-172 0 -172 -67 -1 -68 -1 -1 171 c0 95 -4 162 -8 151 -5 -11 -6 -88 -3 -172
l5 -152 -49 1 c-27 0 -59 4 -71 9 -14 5 -23 5 -23 -1 0 -6 -12 -10 -27 -10
-14 0 -23 -3 -19 -8 4 -4 96 -8 204 -8 108 -1 269 -9 357 -18 88 -9 217 -19
288 -23 70 -3 127 -10 127 -15 0 -5 4 -7 9 -3 5 3 7 25 5 48 -4 39 -2 45 21
55 18 9 25 19 25 41 0 16 4 32 10 36 5 3 10 -24 12 -67 3 -67 5 -73 26 -76 21
-3 22 0 22 55 0 32 -7 139 -16 238 -8 99 -18 218 -20 265 -8 127 -12 120 -13
-21z m-521 -39 c0 -5 -5 -10 -11 -10 -5 0 -7 5 -4 10 3 6 8 10 11 10 2 0 4 -4
4 -10z m-156 -280 c1 -159 -1 -175 -16 -178 -17 -3 -18 11 -18 178 0 164 2
181 17 178 15 -3 17 -23 17 -178z m36 1 c0 -103 -4 -172 -10 -176 -7 -4 -10
55 -10 169 0 111 4 176 10 176 6 0 10 -63 10 -169z m590 130 c0 -6 -4 -13 -10
-16 -5 -3 -10 1 -10 9 0 9 5 16 10 16 6 0 10 -4 10 -9z m48 -53 c-2 -41 -8
-63 -17 -66 -10 -3 -11 0 -5 9 5 9 -1 8 -19 -4 l-27 -17 0 45 c0 37 5 51 26
70 15 14 31 25 36 25 5 0 8 -28 6 -62z m-387 -39 c-5 -13 -10 -17 -11 -9 0 8
-3 26 -6 40 -6 23 -5 24 10 9 13 -12 14 -21 7 -40z m116 -5 c-3 -3 -12 -4 -19
-1 -8 3 -5 6 6 6 11 1 17 -2 13 -5z m227 -48 c-10 -8 -21 -12 -23 -10 -3 2 4
11 15 18 10 8 21 12 23 10 3 -2 -4 -11 -15 -18z m-314 -16 c0 -5 -5 -10 -11
-10 -5 0 -7 5 -4 10 3 6 8 10 11 10 2 0 4 -4 4 -10z m315 -10 c-3 -5 -12 -10
-18 -10 -7 0 -6 4 3 10 19 12 23 12 15 0z m20 -31 c-4 -5 -15 -14 -26 -19 -16
-9 -19 -7 -19 9 0 11 8 21 18 24 22 5 34 -2 27 -14z"/>
<path d="M3650 490 c0 -5 5 -10 11 -10 5 0 7 5 4 10 -3 6 -8 10 -11 10 -2 0
-4 -4 -4 -10z"/>
<path d="M3531 814 c0 -11 3 -14 6 -6 3 7 2 16 -1 19 -3 4 -6 -2 -5 -13z"/>
<path d="M2748 803 c6 -2 18 -2 25 0 6 3 1 5 -13 5 -14 0 -19 -2 -12 -5z"/>
<path d="M3985 780 c4 -11 2 -20 -4 -20 -17 0 -13 -47 5 -54 9 -3 12 -11 8
-18 -6 -10 -5 -11 8 -1 8 7 17 11 19 9 2 -3 15 4 29 15 24 20 24 20 3 14 -14
-4 -23 -2 -23 4 0 6 9 11 19 11 11 0 23 4 26 10 3 6 -1 7 -9 4 -10 -4 -16 -1
-16 9 0 8 -14 20 -31 26 -42 14 -41 14 -34 -9z"/>
<path d="M3525 779 c-4 -6 -5 -12 -2 -15 2 -3 7 2 10 11 7 17 1 20 -8 4z"/>
<path d="M3744 765 c-17 -13 -17 -14 -2 -15 9 0 20 5 23 11 11 17 0 20 -21 4z"/>
<path d="M4080 717 c-11 -31 3 -63 22 -51 5 3 7 8 4 12 -3 3 2 11 12 18 16 12
15 13 -5 14 -13 0 -23 5 -23 11 0 6 9 9 19 6 13 -3 18 0 15 7 -9 23 -33 13
-44 -17z"/>
<path d="M1907 717 c-3 -8 1 -14 9 -14 16 0 19 13 5 21 -5 3 -11 0 -14 -7z"/>
<path d="M1940 712 c0 -15 4 -20 16 -15 9 3 12 9 7 12 -4 3 -11 10 -15 15 -5
5 -8 0 -8 -12z"/>
<path d="M3752 684 c-14 -15 -7 -17 22 -5 15 6 16 9 5 13 -8 3 -20 -1 -27 -8z"/>
<path d="M3632 667 c-7 -8 -8 -24 -3 -43 l8 -29 16 32 c9 18 17 37 17 43 0 14
-25 13 -38 -3z"/>
<path d="M4026 664 c-5 -13 -2 -15 14 -11 11 3 27 -1 34 -9 8 -8 19 -14 25
-14 5 0 -1 11 -15 25 -29 29 -49 32 -58 9z"/>
<path d="M2057 624 c7 -19 31 -25 36 -9 4 8 -3 15 -18 17 -16 3 -22 1 -18 -8z"/>
<path d="M4070 610 c-13 -8 -12 -10 3 -10 9 0 17 -4 17 -10 0 -5 4 -10 9 -10
12 0 7 33 -5 37 -5 1 -16 -2 -24 -7z"/>
<path d="M4244 601 c4 -5 1 -12 -4 -14 -6 -3 -5 -4 2 -3 15 3 23 26 8 26 -6 0
-9 -4 -6 -9z"/>
<path d="M4191 574 c0 -11 3 -14 6 -6 3 7 2 16 -1 19 -3 4 -6 -2 -5 -13z"/>
<path d="M2743 505 c0 -33 2 -45 4 -27 2 18 2 45 0 60 -2 15 -4 0 -4 -33z"/>
<path d="M2206 535 c4 -8 10 -15 15 -15 5 0 9 7 9 15 0 8 -7 15 -15 15 -9 0
-12 -6 -9 -15z"/>
<path d="M2593 495 c0 -27 2 -38 4 -22 2 15 2 37 0 50 -2 12 -4 0 -4 -28z"/>
<path d="M4190 530 c-8 -5 -18 -6 -22 -4 -4 3 -8 0 -8 -5 0 -6 -9 -11 -20 -11
-11 0 -20 -4 -20 -10 0 -5 4 -10 8 -10 5 0 7 -13 4 -30 -3 -18 0 -30 7 -30 12
0 15 -56 3 -64 -4 -2 -8 7 -7 21 0 20 -5 27 -23 28 -28 2 -36 -9 -28 -41 6
-22 11 -24 72 -24 43 0 66 4 69 13 10 29 13 77 4 77 -5 0 -9 -11 -9 -25 0 -14
-4 -25 -10 -25 -5 0 -10 12 -10 26 0 38 -17 64 -37 57 -10 -4 -14 -2 -10 4 11
17 56 21 68 7 8 -10 8 -14 0 -14 -6 0 -11 -4 -11 -10 0 -6 9 -6 24 0 13 5 27
6 32 2 4 -4 4 -1 0 6 -4 7 -12 10 -17 7 -5 -4 -9 1 -9 9 0 9 -7 16 -15 16 -8
0 -12 6 -9 14 7 18 -8 27 -26 16z"/>
<path d="M4249 523 c-13 -16 -12 -17 4 -4 16 13 21 21 13 21 -2 0 -10 -8 -17
-17z"/>
<path d="M2130 525 c0 -12 24 -55 32 -55 4 0 17 -15 28 -32 11 -18 20 -27 20
-19 0 8 -17 36 -37 62 -35 47 -43 55 -43 44z"/>
<path d="M2443 495 c0 -22 2 -30 4 -17 2 12 2 30 0 40 -3 9 -5 -1 -4 -23z"/>
<path d="M4272 494 c4 -23 27 -31 24 -8 -2 10 -8 20 -15 22 -8 3 -12 -3 -9
-14z"/>
<path d="M2241 474 c0 -11 3 -14 6 -6 3 7 2 16 -1 19 -3 4 -6 -2 -5 -13z"/>
<path d="M2151 444 c0 -11 3 -14 6 -6 3 7 2 16 -1 19 -3 4 -6 -2 -5 -13z"/>
<path d="M2245 430 c3 -5 8 -10 11 -10 2 0 4 5 4 10 0 6 -5 10 -11 10 -5 0 -7
-4 -4 -10z"/>
<path d="M2602 410 c0 -14 2 -19 5 -12 2 6 2 18 0 25 -3 6 -5 1 -5 -13z"/>
<path d="M2603 310 c0 -41 2 -58 4 -37 2 20 2 54 0 75 -2 20 -4 3 -4 -38z"/>
<path d="M4055 360 c-3 -5 -1 -10 4 -10 6 0 11 5 11 10 0 6 -2 10 -4 10 -3 0
-8 -4 -11 -10z"/>
<path d="M3811 344 c0 -11 3 -14 6 -6 3 7 2 16 -1 19 -3 4 -6 -2 -5 -13z"/>
<path d="M3800 310 c0 -5 5 -10 11 -10 5 0 7 5 4 10 -3 6 -8 10 -11 10 -2 0
-4 -4 -4 -10z"/>
<path d="M2067 241 c-17 -19 -23 -32 -17 -36 6 -4 12 -5 13 -4 1 2 10 19 20
37 22 40 20 40 -16 3z"/>
<path d="M3778 243 c7 -3 16 -2 19 1 4 3 -2 6 -13 5 -11 0 -14 -3 -6 -6z"/>
<path d="M4153 163 c9 -2 25 -2 35 0 9 3 1 5 -18 5 -19 0 -27 -2 -17 -5z"/>
<path d="M4392 2315 c0 -16 2 -22 5 -12 2 9 2 23 0 30 -3 6 -5 -1 -5 -18z"/>
<path d="M4069 2046 c-2 -2 -38 -7 -79 -10 -111 -9 -117 -29 -7 -24 64 3 92 9
105 21 14 15 14 17 1 17 -9 0 -18 -2 -20 -4z"/>
<path d="M4678 2033 c7 -3 16 -2 19 1 4 3 -2 6 -13 5 -11 0 -14 -3 -6 -6z"/>
<path d="M3881 2004 c-1 -12 6 -25 15 -28 13 -5 14 -3 7 6 -6 7 -13 20 -16 28
-4 10 -6 8 -6 -6z"/>
<path d="M4020 1830 c0 -5 5 -10 10 -10 6 0 10 5 10 10 0 6 -4 10 -10 10 -5 0
-10 -4 -10 -10z"/>
<path d="M3680 1670 c0 -44 2 -80 4 -80 2 0 13 -3 23 -6 17 -5 17 -5 1 6 -25
16 -22 30 6 30 27 0 36 21 36 88 0 41 0 42 -35 42 l-35 0 0 -80z"/>
<path d="M3052 2340 c0 -14 2 -19 5 -12 2 6 2 18 0 25 -3 6 -5 1 -5 -13z"/>
<path d="M2854 2020 c0 -13 4 -16 10 -10 7 7 7 13 0 20 -6 6 -10 3 -10 -10z"/>
<path d="M200 1229 c0 -5 5 -7 10 -4 6 3 10 8 10 11 0 2 -4 4 -10 4 -5 0 -10
-5 -10 -11z"/>
<path d="M5922 1264 c-2 -68 1 -86 13 -91 22 -8 28 2 15 26 -6 12 -12 48 -13
80 -4 90 -12 81 -15 -15z"/>
<path d="M1672 1295 c-11 -12 -10 -15 3 -15 8 0 15 7 15 15 0 18 -2 18 -18 0z"/>
<path d="M3133 1515 c0 -38 2 -53 4 -32 2 20 2 52 0 70 -2 17 -4 1 -4 -38z"/>
<path d="M3131 1414 c0 -11 3 -14 6 -6 3 7 2 16 -1 19 -3 4 -6 -2 -5 -13z"/>
<path d="M4260 1542 c0 -12 19 -26 26 -19 2 2 -2 10 -11 17 -9 8 -15 8 -15 2z"/>
<path d="M5240 1445 c-18 -21 -3 -32 16 -13 10 9 12 18 6 22 -5 3 -15 -1 -22
-9z"/>
<path d="M4634 1399 c-5 -9 -4 -10 36 -12 16 -1 26 -9 28 -22 7 -36 18 -36 14
0 -3 24 -9 35 -21 36 -9 0 -24 2 -33 4 -10 2 -20 -1 -24 -6z"/>
<path d="M1535 1180 c3 -5 8 -10 11 -10 2 0 4 5 4 10 0 6 -5 10 -11 10 -5 0
-7 -4 -4 -10z"/>
<path d="M5278 1142 c-10 -2 -18 -10 -18 -18 0 -16 9 -18 29 -5 18 12 10 28
-11 23z"/>
<path d="M6900 1030 c0 -5 7 -10 16 -10 8 0 12 5 9 10 -3 6 -10 10 -16 10 -5
0 -9 -4 -9 -10z"/>
<path d="M976 1055 c-11 -8 -15 -15 -10 -15 6 0 19 7 30 15 10 8 15 14 9 14
-5 0 -19 -6 -29 -14z"/>
<path d="M6550 840 c-9 -6 -10 -10 -3 -10 6 0 15 5 18 10 8 12 4 12 -15 0z"/>
<path d="M1285 480 c-3 -5 -2 -10 4 -10 5 0 13 5 16 10 3 6 2 10 -4 10 -5 0
-13 -4 -16 -10z"/>
<path d="M1487 446 c-12 -12 -12 -22 -3 -51 9 -30 21 -42 60 -62 55 -28 98
-63 76 -63 -9 0 -8 -6 5 -20 21 -23 35 -19 15 5 -9 11 -9 15 -1 15 7 0 -1 17
-16 37 -22 29 -24 35 -9 30 14 -6 17 -4 12 9 -3 8 -6 19 -6 23 0 8 -15 11 -69
12 -46 1 -24 22 24 23 29 1 33 3 19 11 -9 6 -24 18 -33 28 -19 21 -54 22 -74
3z m56 -13 c-7 -2 -19 -2 -25 0 -7 3 -2 5 12 5 14 0 19 -2 13 -5z"/>
<path d="M1372 388 c-55 -45 -61 -60 -19 -57 33 3 80 36 72 50 -3 4 -1 10 5
14 11 7 4 25 -10 25 -4 0 -26 -15 -48 -32z"/>
<path d="M1450 410 c0 -5 6 -10 13 -10 8 0 7 -4 -3 -10 -8 -5 -10 -10 -4 -10
16 0 23 10 17 26 -6 16 -23 19 -23 4z"/>
<path d="M1400 325 c-19 -7 -28 -14 -20 -15 25 -4 43 1 64 16 26 18 4 17 -44
-1z"/>
<path d="M1447 294 c-30 -34 -34 -43 -22 -48 11 -4 20 3 29 24 7 17 15 28 18
24 4 -3 9 4 13 16 10 33 3 30 -38 -16z"/>
<path d="M1502 315 c0 -16 2 -22 5 -12 2 9 2 23 0 30 -3 6 -5 -1 -5 -18z"/>
<path d="M1569 291 c14 -26 31 -36 31 -19 0 7 -9 19 -21 26 -19 12 -19 11 -10
-7z"/>
<path d="M1512 260 c0 -14 2 -19 5 -12 2 6 2 18 0 25 -3 6 -5 1 -5 -13z"/>
<path d="M1562 250 c7 -11 16 -20 20 -20 19 0 24 -2 46 -22 12 -12 22 -17 22
-11 0 5 -11 20 -25 33 -16 15 -25 19 -25 10 0 -8 -7 -5 -19 8 -23 28 -35 29
-19 2z"/>
<path d="M1560 213 c18 -24 36 -41 39 -38 3 3 -12 22 -33 43 l-39 37 33 -42z"/>
<path d="M1770 155 c-8 -9 -8 -15 -2 -15 12 0 26 19 19 26 -2 2 -10 -2 -17
-11z"/>
<path d="M684 334 c-18 -14 -18 -15 4 -4 12 6 22 13 22 15 0 8 -5 6 -26 -11z"/>
<path d="M4390 350 c0 -5 5 -10 11 -10 5 0 7 5 4 10 -3 6 -8 10 -11 10 -2 0
-4 -4 -4 -10z"/>
<path d="M4438 343 c7 -3 16 -2 19 1 4 3 -2 6 -13 5 -11 0 -14 -3 -6 -6z"/>
<path d="M7277 3578 c2 -5 12 -8 21 -8 9 0 26 -12 39 -27 l22 -28 1 31 c0 31
-2 32 -44 35 -24 2 -42 1 -39 -3z"/>
<path d="M7074 3533 c11 -11 146 -20 146 -10 0 4 4 6 9 3 5 -4 20 -2 33 3 16
7 -8 10 -86 10 -60 1 -106 -2 -102 -6z"/>
<path d="M7348 3228 c-3 -260 -5 -286 -23 -315 -16 -28 -25 -33 -57 -33 -26 0
-36 -4 -32 -13 3 -8 -3 -13 -16 -13 -11 0 -20 4 -20 9 0 4 -5 5 -11 2 -6 -5
-4 -12 8 -21 14 -11 15 -15 5 -22 -10 -7 -5 -12 17 -22 39 -16 39 -24 -1 -41
-17 -7 -26 -15 -20 -17 6 -2 22 4 36 14 19 11 30 13 39 6 9 -8 12 0 12 33 0
47 25 85 57 85 17 0 18 15 18 315 0 173 -2 315 -4 315 -2 0 -6 -127 -8 -282z"/>
<path d="M6853 3020 c0 -47 2 -66 4 -42 2 23 2 61 0 85 -2 23 -4 4 -4 -43z"/>
<path d="M7230 2969 c-36 -15 -60 -39 -60 -62 0 -16 5 -18 28 -12 54 13 122
50 119 65 -3 18 -52 23 -87 9z"/>
<path d="M6863 2805 c0 -22 2 -30 4 -17 2 12 2 30 0 40 -3 9 -5 -1 -4 -23z"/>
<path d="M6955 2830 c-3 -5 -1 -10 5 -10 6 0 8 -5 5 -11 -4 -6 -14 -8 -22 -5
-9 4 -13 1 -11 -6 7 -19 47 -22 54 -4 7 18 -22 51 -31 36z"/>
<path d="M7032 2793 c-12 -2 -27 -13 -32 -24 -10 -18 -7 -19 50 -19 38 0 59 4
55 10 -3 6 -14 10 -23 11 -11 0 -12 2 -4 6 6 2 10 9 6 14 -5 9 -12 9 -52 2z"/>
<path d="M6878 2723 c-9 -2 -19 -11 -22 -19 -4 -11 4 -14 39 -14 38 0 45 3 45
20 0 20 -20 24 -62 13z"/>
<path d="M7328 2712 c-26 -3 -41 -22 -17 -22 5 0 7 -5 3 -11 -4 -8 1 -9 17 -4
30 9 31 11 27 27 -2 8 -14 12 -30 10z"/>
<path d="M6794 2696 c-10 -8 -17 -17 -14 -19 3 -3 16 3 29 14 27 22 15 26 -15
5z"/>
<path d="M7165 2650 c-3 -5 -3 -15 1 -21 6 -11 23 6 24 24 0 10 -18 9 -25 -3z"/>
<path d="M7333 2602 c-9 -6 -7 -11 7 -20 17 -11 20 -10 20 8 0 21 -7 25 -27
12z"/>
<path d="M7325 2550 c-8 -14 3 -30 21 -30 8 0 14 9 14 20 0 21 -24 28 -35 10z"/>
<path d="M7087 2519 c13 -13 26 -18 34 -14 9 6 7 11 -6 22 -11 7 -26 13 -34
13 -12 0 -11 -5 6 -21z"/>
<path d="M7280 2530 c19 -13 30 -13 30 0 0 6 -10 10 -22 10 -19 0 -20 -2 -8
-10z"/>
<path d="M7266 2202 c10 -19 25 -39 33 -45 9 -8 8 0 -5 21 -10 19 -25 39 -33
45 -9 8 -8 0 5 -21z"/>
<path d="M7228 2200 c-11 -31 -27 -94 -25 -96 1 -2 17 4 35 13 21 10 29 19 22
23 -7 4 -15 23 -20 41 -4 21 -9 28 -12 19z"/>
<path d="M7070 2173 c0 -14 15 -29 35 -37 17 -6 17 -4 -4 18 -26 28 -31 31
-31 19z"/>
<path d="M7351 2054 c0 -11 3 -14 6 -6 3 7 2 16 -1 19 -3 4 -6 -2 -5 -13z"/>
<path d="M7280 1970 c0 -5 8 -10 17 -10 10 0 27 -12 40 -27 l22 -28 1 27 c0
17 -7 31 -19 38 -25 13 -61 13 -61 0z"/>
<path d="M7296 1881 c-7 -10 17 -21 46 -21 17 0 18 3 8 15 -14 17 -46 20 -54
6z"/>
<path d="M7311 1721 c-12 -21 -10 -26 13 -50 l27 -26 -10 30 c-5 17 -11 39
-13 50 -4 19 -5 19 -17 -4z"/>
<path d="M7225 1620 c22 -11 47 -19 55 -19 17 0 -33 23 -71 33 -13 3 -6 -3 16
-14z"/>
<path d="M7338 1613 c7 -3 16 -2 19 1 4 3 -2 6 -13 5 -11 0 -14 -3 -6 -6z"/>
<path d="M7296 1581 c-16 -6 -12 -10 22 -18 38 -10 42 -9 42 8 0 20 -27 24
-64 10z"/>
<path d="M7160 1570 c-9 -6 -10 -10 -3 -10 6 0 15 5 18 10 8 12 4 12 -15 0z"/>
<path d="M7215 1560 c-3 -5 -1 -10 4 -10 6 0 11 5 11 10 0 6 -2 10 -4 10 -3 0
-8 -4 -11 -10z"/>
<path d="M7135 1542 c-10 -6 -10 -12 -6 -40 1 -10 1 -10 86 -16 63 -5 96 4 55
14 -14 4 -35 3 -48 -2 -15 -5 -24 -4 -26 5 -13 40 -17 47 -33 47 -10 0 -23 -4
-28 -8z"/>
<path d="M7255 1540 c-3 -5 -1 -10 4 -10 6 0 11 5 11 10 0 6 -2 10 -4 10 -3 0
-8 -4 -11 -10z"/>
<path d="M7323 1514 c-6 -13 -7 -24 -3 -24 5 0 15 -6 23 -14 12 -13 14 -11 15
14 1 41 -20 55 -35 24z"/>
<path d="M7040 1490 c-11 -7 -7 -10 17 -10 17 0 40 -3 50 -7 16 -6 16 -5 4 10
-15 19 -48 22 -71 7z"/>
</g>
</svg>
